<svg xmlns="http://www.w3.org/2000/svg" xmlns:xlink="http://www.w3.org/1999/xlink" xml:space="preserve" viewBox="0 0 128 128"><path d="M12 79.5s-.1.5-.3 3-.5 5.6 0 5.9 5.9-2.3 5.9-2.3L20 82s-.9-1.6-2.4-2.4c-.8-.4-1.7-.6-1.7-.6z" style="fill:#1f87fd"/><path d="M14.5 78.9c-1.4-.1-2.6.7-2.6.7s2.1 2 2.6 2.4 1.4.9 1.7.1.4-2.7.4-2.7-.4-.4-2.1-.5" style="fill:#7ab9ff"/><path d="M16 83c-.5.2-4.3 5.5-4.3 5.5s.2 1 1.7.6c1.5-.5 5.9-2.6 5.9-2.6l-.5-3.5z" style="fill:#0868d4"/><path d="M25.4 52.9s-7.7 2-8.1 2.3-.8.7-.7 1.3 1.8 20.8 1.9 24.3.6 8.8.6 9.5.4 1.3 1.3 1.7 5.4 2.3 5.8 2.5 1.3.1 1.7-.2 1.3-.6 1.3-.6l34 14.6s-.3 1.6.2 2.1 5.6 2.6 6.2 2.6 1.8-1.8 1.8-1.8l-.6-39.5z" style="fill:#5e6367"/><path d="M52.6 6s.1-.9-.6-1.3c-.7-.5-4.4.8-4.4.8l-7.2 4.2-7.3 10.5 5.5 3.2L55 8.4z" style="fill:#464c4f"/><path d="M43.3 11c4.9-4.3 8.8-5.4 8.8-5.4l15.6 3.2 26.1 8-12 7.6L71 36.2l-35.2-13s2.7-7.9 7.5-12.2" style="fill:#d27857"/><defs><path id="a" d="M43.3 11c4.9-4.3 8.8-5.4 8.8-5.4l15.6 3.2 26.1 8-12 7.6L71 36.2l-35.2-13s2.7-7.9 7.5-12.2"/></defs><clipPath id="b"><use xlink:href="#a" style="overflow:visible"/></clipPath><path d="M79.7 24.8 38.9 13.2" style="clip-path:url(#b);fill:none;stroke:#ab5832;stroke-width:1.1693;stroke-miterlimit:10"/><defs><path id="c" d="M43.3 11c4.9-4.3 8.8-5.4 8.8-5.4l15.6 3.2 26.1 8-12 7.6L71 36.2l-35.2-13s2.7-7.9 7.5-12.2"/></defs><clipPath id="d"><use xlink:href="#c" style="overflow:visible"/></clipPath><path d="M45.8 7.3 87.2 19" style="clip-path:url(#d);fill:none;stroke:#ab5832;stroke-width:1.1693;stroke-miterlimit:10"/><path d="m20.6 56.3 5.4-1.5-.3 3.4z" style="fill:#51362f"/><path d="M23.9 85.5c-.4.1-1.1.1-1.1-.7 0-.4-1.4-19.7-1.4-20.4s.1-1.6.7-1.6 1.9 1 1.9 1l3.7 18.7c.1 0-3.4 2.8-3.8 3m24.6 8.9s-1.1 1.1-1.6 1.1c-.4 0-1.2-.1-1.2-1.7s.1-20.1.1-20.1l2.4-1.3 5.6 18.8z" style="fill:#474d50"/><path d="M24.5 85.1 39 91.6V69.5l-16-6.3z" style="fill:#d27857"/><defs><path id="e" d="M24.5 85.1 39 91.6V69.5l-16-6.3z"/></defs><clipPath id="f"><use xlink:href="#e" style="overflow:visible"/></clipPath><path d="m22.5 74.9 18.3 7.3" style="clip-path:url(#f);fill:none;stroke:#ab5832;stroke-width:1.2592;stroke-miterlimit:10"/><defs><path id="g" d="M24.5 85.1 39 91.6V69.5l-16-6.3z"/></defs><clipPath id="h"><use xlink:href="#g" style="overflow:visible"/></clipPath><path d="m21.8 64.8 19.5 7.6-.3-6.8-19.7-4.9z" style="clip-path:url(#h);fill:none;stroke:#ab5832;stroke-width:1.2592;stroke-miterlimit:10"/><path d="m64.2 102.4-16.6-7.2.2-22.1 17 6.3z" style="fill:#d27857"/><defs><path id="i" d="m64.2 102.4-16.6-7.2.2-22.1 17 6.3z"/></defs><clipPath id="j"><use xlink:href="#i" style="overflow:visible"/></clipPath><path d="m46.1 84.2 19.8 8" style="clip-path:url(#j);fill:none;stroke:#ab5832;stroke-width:1.2592;stroke-miterlimit:10"/><defs><path id="k" d="m64.2 102.4-16.6-7.2.2-22.1 17 6.3z"/></defs><clipPath id="l"><use xlink:href="#k" style="overflow:visible"/></clipPath><path d="m46.4 74.5 20.7 7.9-2.8-9.9-19-2.2z" style="clip-path:url(#l);fill:#ab5832"/><path d="m30.3 26.6 17 12.1 2.6 7L86 54.2 97.3 53l-17-14.8-49.2-13.5z" style="fill:#51362f"/><path d="m71.3 9.5 2.3.5s1.5.6 1.3 1c-.1.2-6.5 1.2-10.1 5.5s-6.3 10.8-6.3 10.8l-2.1-2.7 7.1-10.5z" style="fill:#464c4f"/><path d="M29.4 19.5s-1.5-.1-2.3 2-.5 3.6.4 4.4c.8.8 2.8 1.3 5.7 2 2.8.8 42.5 13.9 42.5 13.9l3.5-5L103 20s-2.3-1.6-4.7-2.5c-1.3-.5-4.2-1.4-5-1.4s-6.7-.1-12.5 5.5c-5.8 5.7-7.7 10.6-7.7 10.6l-16.1-5s3.1-9 7.6-13.1c4.8-4.2 9.3-4 9.3-4s-1.5-.8-3.2-1.3c-1.8-.5-3.5-.5-4.3-.4s-6.2 2.1-10.3 7.5c-3.3 4.3-4.9 9.2-4.9 9.2s-15-4.7-15.6-5.1c-.6-.3.8-2.8 1.5-4.2s4-5.6 6.2-7.4c3.1-2.4 8.2-4 8.2-4s-3.1-.6-5.1-.4c-2.6.3-6.5 1.8-10 5.4-4.6 4.8-7 10.1-7 10.1" style="fill:#5e6367"/><path d="M69.5 113.2s5.4-2.3 5.7-2.5c.2-.2.1-1.1.1-1.1l21.5-10.2s-.1 1.3.5 1.3 1.9-.5 3.4-1.4 3.5-2.2 3.5-2.2l3.6-36.6s1-1 1.9-2.6 1-3.5 1-3.5 10.1-22.9-3-31.9C93 12.4 80 30 78 35.4c-1.2 3.4-2.5 6.4-2.5 6.4s30.1 16.8 30.1 17.6-37 13.4-37 13.4l.6 1.3z" style="fill:#464c4f"/><path d="m80.6 35.4 28.7 17.7s10.4-24.8-4.8-30.3c-15-5.4-23.9 12.6-23.9 12.6" style="fill:#ab5832"/><path d="M45.1 31.2c-.2.5-.6 2 .2 2.3 2.1.8 2.6 1.1 4.8 1.8 2.9 1 4.5 1.5 5.5 1.7 1.1.3 1.7-.3 1.9-1 .2-.6 1.2-2.8 2-5.5.9-3.1.9-6.9-3.7-8.6-4.6-1.6-7.7 1.4-9 4.8-.9 2.4-1.6 4.3-1.7 4.5" style="fill:#ffb803"/><path d="M53.6 25.6c-2-.9-4.5.7-4.9 3-.4 2.4 1.3 3.7 2.9 4 2 .4 3.4-.8 3.9-2.6.6-2.3-.1-3.7-1.9-4.4" style="fill:#ff8e00"/><path d="m32.7 52-8.2 5.4.5.5s41.3 15.7 43 15.7 4-.9 5.4-1.4c1.2-.4 27.1-10.6 32-12.7.5-.2.4-.6.1-.8s-13.4-7.8-13.4-7.8-1.6.4-2.3.9-1.3 1.1-1.3 1.1-.4-.6-.8-.7-1.1-.3-1.1-.3.8-1.9-1-3.6-3.3-1-3.3-1 .1-.9-.1-2c-1.6-.8-6.1-3.5-6.6-3.7s-5.5-1.9-7.6-2.4c-.7.1-1.3.3-1.7.5-2.3 1.4-1.9 2.7-1.9 2.7l-6.2-.2z" style="fill:#ec8717"/><path d="M95.1 56.6s-.3-.9 1.5-.5c1.8.3 1.8.6 2.8.6s1.7-.4 1.7-.4l1.9 1.1s.3 1.3-2 1.8-5-.5-5-.5zm-11.4-4.1c-.8-.2-1.1 2.5-2 3.2s-2.9.7-2.8 1.8 2.8 1.4 4.6.1c1.6-1.2 2.2-4.6.2-5.1m-11.4 6.8c-1.5.8-2.7 2.5-2.2 3.4.4.9 2.5.8 4-.4s3-1.6 2.4-2.9c-.7-1.3-3.1-.7-4.2-.1m-1.5 5.2c-.8.1-2-.5-2.5.1s.4 3.1 2.5 2.8 3.6-2.9 2.6-3.5c-1-.5-1.9.5-2.6.6" style="fill:#ffa826"/><path d="M24.5 57.4s3.2.6 4.3 1.1 8.7 3.5 9.6 3.5c1 .1 4.2-.2 4.2-.2s.8 1.7 3.9 2.8c3.1 1 6.7.3 6.7.3s1 1.2 2.2 1.6c1.2.3 2.2.4 2.2.4s1.6 2.1 4.9 3 4.7-.1 5.3-.7c.7-.6.5-1.7.5-1.7l-4.4-3s-1.5-.7-1-1.2 1.2 0 1.2 0l4.2-11.7s-1.4.1-2.6-1.2-1.7-3.1-1.7-3.1l-1.1 1.1s1.2 2.4.8 4-1.4 2.9-1.4 2.9.6 1.1-.6 3.5-2.6 5.2-3.8 5.6-2.5.4-3.5-.1c-1.1-.5-2-1.5-2-1.5v-7.5s-1-.1-1.4-.1-.6-.5-.6-.9.3-.7 1.1-.7 4.3.1 5.5.1c1.1-.1 2-1.7 2-1.7l-6.4-5.2s-1.1-.4-.7-1.2c.5-.8 1.5-.5 1.5-.5l-.3-4.2s-1-.4-2.3-.7c-1.3-.2-1.6-.2-1.6-.2s0-1.1-1.1-1.9c-1.1-.7-7.5-.1-7.5-.1s-1.5.9-2 2.2-.4 2.2-.4 2.2-2.1 0-2.6.3-3.1 1.2-3.7 1.8-.6 1.2-.6 1.2-4.3 0-6 2.8c-1.6 2.6.1 4.3.1 4.3s-1.3.5-1.5 2.4c-.1 1.4.6 2.2.6 2.2" style="fill:#ffa826"/><path d="M58.3 65.7c-.4 1.6 3.7 2.9 4.7 3.1 1.1.2 4.9.2 5.1-1.2s-2.1-2.7-4.6-3.1c-2.4-.4-4.8-.1-5.2 1.2m-23.5-9.4c.2.9-.9 2.4-4.4 2.4-3.3-.1-4.6-1.1-4.5-2.4s2.2-1.7 4.3-1.8 4.3.5 4.6 1.8m.8 2.1c-.3 1.5 1.8 3.5 6 3s5.1-3.1 4-4.5c-1.2-1.6-3.8.5-5.1.5-.9 0-2.7-.8-3.9-.4-.4.1-.9.8-1 1.4" style="fill:#fcc219"/><path d="M37 55.9s.2 1.6 2.6 1.5 3.3-1.3 3.7-2 .8-2 .8-2 2.2-.1 3.3-1.4 1-2.9.5-4.1-1.5-2.4-1.5-2.4-5.1-1-5.5-1c-.4-.1-.8.7-1.2 1.3s-1.1 1.1-1.8 1.4-2.2.2-2.1 1.3 1.8 1.1 3 .8 2.5-1 2.5-1l.6 2.9z" style="fill:#ec8717"/><path d="M25.5 48.4c-.7 1.5.1 3.4 4.1 4.3s5.8-.3 5.9-1.5-1.1-3.2-4.3-3.9c-2.5-.6-5-.4-5.7 1.1m6-3c.3 1.2 2.5 2.1 5 1.4s3.2-1.8 2.8-3-2.4-1.4-4.5-1.1c-2 .4-3.6 1.5-3.3 2.7m7.8-5.5c0 1.6 1.7 3.1 5.7 2.2 3.9-.9 4.1-3 3.6-4-.5-1.1-2.2-1.7-5-1.3-2.1.3-4.2 1-4.3 3.1m7.1 3.7c-.2.8.8 2.2 3 1.2s2.4-3.2 1.4-3.5c-1.2-.3-1.3.8-2 1.2s-2 0-2.4 1.1M61 46.2c1.2-.6 1.8-2.1 2.1-3.2.4-1.1.7-2.4.2-2.9-.6-.5-1.8-.6-2.8-.7-.7-.1-3-.5-4.1-.7-1-.2-2.2.2-2.8 1.1s-1.3 3.1-1.4 3.6-.4 1.5 1.1 1.9 6.3 1.5 7.7.9m-9.9 1.7c-.3 1.3-.8 3.3-.8 3.7-.1.6.2 1.2 1.5 1.3s6.1.9 6.9 1c.9.1 1.9.2 2.1-1.3.2-1.4.2-2.9.2-3.6 0-.8-.6-1.1-1.5-1.3-.6-.1-3.8-.6-5.9-.8-.9-.1-2.2-.2-2.5 1m-6.8 14.4c.1.7 2.4 2.1 4.6.9s1.1-4 .7-4.4-.8-.4-1.1 0c-.2.4-.4 2-1.3 2.5-.8.5-3 .2-2.9 1m7.7.4c.5.4 1.2.8 2.3.7s2 0 2.6-.6 2.9-4.2 3.2-5.1.3-1.8-.6-2-6.7-.5-7.2-.5-1 .6-1.1 1.5.2 5.5.8 6" style="fill:#fcc219"/><path d="M55.2 56.8c-1.1 0-1.9.7-1.8 1.7s.7 1.6 1.8 1.6 1.6-.8 1.6-1.6-.5-1.7-1.6-1.7m-1.3-6.7c-.1.9.4 2 1.7 2s1.9-.9 1.8-1.6-.4-1.6-1.7-1.7c-1-.1-1.7.8-1.8 1.3m2-8.3c-.3 1.2.8 2 1.7 2.1 1.1.1 2-.4 2.2-1.5.2-1.2-.6-2-1.8-2-1.2-.2-1.9.6-2.1 1.4" style="fill:#ff2a23"/><path d="M88.6 55.6s.3-1.9 2.3-1.7 2.2 2 1.9 2.7c-.4 1-1.3 1.3-2.1 1.3-1.4 0-1.9-1.3-1.9-1.3s-.3 1.3-1.6 1.2c-1.3 0-1.6-1.1-1.6-1.8 0-.4.5-1.4 1.7-1.4.7.1 1.3 1 1.3 1m8 1.6c-.6-.8-2-1.3-3.1-.4-.9.7-1.2 2.2-.4 3.2.9 1 2.3 1 3 .4.7-.7 1.4-2 .5-3.2" style="fill:#feeac8"/><path d="M95.9 60.3c-.8.5-1.1 1.7-.6 2.7.4.9 1.7 1.4 2.8.8.8-.4 1.2-1.8.7-2.8-.5-.9-2-1.3-2.9-.7" style="fill:#feeac8"/><path d="M46.2 44.3c-.3-.1-4.3-.1-4.6-.1s-.8.2-.9.7.3 5.8.3 6 .2.6 1 .6 3.8-.5 3.9-.5.3-6.7.3-6.7" style="fill:#ff2a23"/><path d="M44.1 45.6c.1.5-.5 1.1-.6 1.5s-.1 2.1-.3 2.3-.5.5-.8.5c-.4 0-.8-.5-.8-1.3v-2.8c0-.4.5-1 1-1 .4 0 1.4.1 1.5.8" style="fill:#ffc0a6"/><path d="M44.3 47.1c0 .5 1.6 4 1.6 4s.9 0 1.1-.4-.2-5.8-.5-6.1c-.2-.3-.4-.3-.4-.3s-1.8 2.3-1.8 2.8" style="fill:#d3100a"/><path d="M38.7 50.8c-1.7.2-3.9 1.2-3.5 3.3s3 2.6 4.2 2.3c1.3-.3 3.6-1.6 3.3-3.6-.4-2.1-3.2-2-4-2" style="fill:#02ab47"/><path d="M37.3 52.2c-.6.1-1.1.6-1.2 1.2s.6 1.2 1.4 1 1.1-1 .9-1.6c-.1-.2-.6-.7-1.1-.6" style="fill:#76ff8b"/><path d="m79.8 47.9-3.1 3.7 2.5 2 4-2.9s-.6-.8-1.5-1.6-1.9-1.2-1.9-1.2" style="fill:#ff2a23"/><path d="M76.4 51.4s-.1-.3.1-.6 2.9-2.8 3.1-2.9c.1-.1.3 0 .4.2.1.3.1 1.8 0 2.1s-.6.6-.9.8c-.3.1-2.3.9-2.3.9z" style="fill:#ffbfa5"/><path d="M80.8 50.7c-.3.2-1.8 2-1.9 2.3-.1.2-.2 1-.2 1l.3-.2s.5.2 1-.1c.4-.2 3-1.9 3.2-2.1s0-.8 0-.8-2-.4-2.4-.1" style="fill:#d3100a"/><path d="m65.8 45.7.1.7 1.9 5.9s7.1-1.8 7.2-2.5c.1-.3-.3-2.2-.6-3.5-.2-1-.7-2.3-.7-2.3z" style="fill:#1f87fd"/><path d="M70.1 49c.2-.5.2-1.2-.6-1.6-.8-.3-3.7-1.3-3.7-1.3l.9 3c.3 1 .9 2.6.9 2.6s2.2-2.2 2.5-2.7" style="fill:#7ab9fe"/><path d="M65.8 45.7s-.2-.5.9-1 3.1-1 4.2-1.1 2.1-.1 2.5.1.3.5.3.5-1.3 1.4-1.9 2.1-.8 1-1.4 1c-.6-.1-4.6-1.6-4.6-1.6" style="fill:#0868d4"/><path d="M66.2 64.2c1.9-.2 2.1-1.1 2.2-2.8.1-1.6 1.3-3.3 3.3-4.4s4.8-.5 5.5-.5 2-.6 2-1.7c.1-1.1-.2-2.1-2.6-3.6-2.5-1.5-7.1-1.3-10.5 1.7s-4.3 6.6-3.1 9.3c.6 1.5 2.5 2 3.2 2" style="fill:#fcc219"/><path d="M65.9 62.7c.4 0 .7-.4.9-1.3.2-.7.8-3.6 3-5.5 2-1.7 4.7-1.4 5.3-1.4.6.1 1.8.3 1.8-.5s-.9-1-1.8-1.1-4.5-.4-7 2.3c-2.2 2.5-2.7 5-2.8 5.8 0 1 0 1.7.6 1.7" style="fill:#ffa826"/><path d="M41 74.9s5.1 2.1 7.1-1.1c2.1-3.2 1.8-6.7 1.5-7.1s-10.7-4.4-11.2-4.4-1.3.1-1.4.8v2.1z" style="fill:#ff8e00"/><path d="M46.9 68.9 37 64.8s0 5 1.2 7.4 4.3 4.2 6.4 2.5 2.3-5.8 2.3-5.8" style="fill:#ffb803"/><path d="m74.2 103.2.3-24.9 26-10.2-1.7 23.8z" style="fill:#ab5832"/><path d="M77.1 62.6c-.8-.6-5.6 3-2.7 11 1.7 4.6 5.7 7.3 9.7 6.6 5.3-.9 7.5-6.7 7.6-9.8.1-4.2-1.1-7.2-3-9s-3.7-1.5-3.9-.9c-.2.5 4.1 2.9 4 8.6 0 4.3-2.4 7.3-5.2 7.8-2.3.4-4.6-.5-6.3-4-3-6.2 1-9.3-.2-10.3" style="fill:#fcc219"/><path d="M97 64.4c-1.2.1-2.1 1.1-2 2.5s1.2 1.8 1.2 1.8-1.1.6-1.2 1.9c-.1 1.4 1 1.9 1 1.9s-1.6.2-1.8 1.8 1.1 2.1 1.1 2.1-1.4 0-2 1.2c-.8 1.7.7 2.7.7 2.7s-1.7-.5-2.5.7c-.7.9-.3 2.2-.3 2.2s-.6-.8-1.5-.8c-1-.1-1.7.6-1.7.6s.1-1.2-.8-1.9c-1-.8-1.9-.5-1.9-.5s1.2-.7.9-2.2c-.3-1.4-1.4-1.8-1.4-1.8s1.1-.7.5-2.3c-.5-1.3-1.8-1.6-1.8-1.6s1.8-.5 1.6-2.5c-.1-1.7-1.6-2.2-1.6-2.2s1.6-1.1 1.2-2.9c-.5-1.8-2.2-2-2.2-2s1.1-1.1.5-2.6-2.2-1.3-2.6-1.2c-1.1.2-1.8 1-1.7 2.5.2 1.4 1.8 1.7 1.8 1.7s-1.2.9-1 2.6c.2 1.4 1.7 1.9 1.7 1.9s-1.4.8-1.2 2.6 1.8 2 1.8 2-1.5.9-1.2 2.7c.3 1.6 1.7 1.6 1.7 1.6s-1.1 1.4-.4 3C82.6 81.4 84 81 84 81s-1.3 1.9.3 3.3c1.4 1.1 2.8.1 2.8.1s-.4 2.8 2.3 2.9c2.7 0 2.5-2.8 2.5-2.8s2.2 1 3.3-.8c1-1.6-.3-3.1-.3-3.1s2.6.4 2.6-1.8c0-1.9-1.3-2.2-1.3-2.2s2 .2 2.2-1.8c.1-1.7-1-2.1-1-2.1s1.7-.3 1.9-1.9-1.2-2.2-1.2-2.2 1.3-.1 1.4-2.1c.1-1.4-1.3-2.2-2.5-2.1" style="fill:#feeac8"/><path d="M36.4 99.1s-.4.4-.4 1.7 1.1 3.1 5.1 3.2 5.4-1.2 5.6-2.6c.2-1.8-.5-1.9-.5-1.9z" style="fill:#ffa826"/><path d="M41.2 102.2c2.2.1 5.4-.2 5.4-1.9s-3.5-2.5-5.5-2.5c-2.6 0-5 .8-5 1.9s2.1 2.4 5.1 2.5" style="fill:#fcc219"/><path d="M38.8 104.9s-1.1 1-.9 2.8c.1 1.9 2.4 3.6 5.6 3.6 4.2 0 6.2-1.3 6.3-3.3s-.9-2.8-.9-2.8z" style="fill:#ffa826"/><path d="M43.7 109.1c3.8-.2 5.4-1.5 5.4-3.1s-4-2.5-5.5-2.3-5.1.1-5.1 2.1 3.1 3.4 5.2 3.3" style="fill:#fcc219"/><path d="M20.6 97.4s-.8.7-.9 2.4c-.1 1.6 1.8 3.6 5.6 3.4s5.2-1.7 5.3-2.9c.1-1.9-1-2.7-1-2.7z" style="fill:#ffa826"/><path d="M25 101.3c2.6.1 5.5-.9 5.1-3C29.6 96 26.4 96 25 96c-1.3 0-4.7.2-4.9 2.5-.1 2.3 2.8 2.7 4.9 2.8" style="fill:#fcc219"/><path d="m53 103.3-2 7.6s1.4.8 4.3 1.5c1.4.3 4.9 1 5.5.8s1.6-7.4 1.6-7.4-2.3-1.1-4.7-1.7c-3.2-.9-4.7-.8-4.7-.8" style="fill:#02ab47"/><path d="M51.1 110.9c-.6-.2-.2-2.2.2-3.5s1.3-4.2 1.7-4.2 2.9 3 2.8 4c-.1 1.1-4.1 3.9-4.7 3.7" style="fill:#76ff8b"/><path d="M57.5 108.1c-.3.8.9 2.1 1.2 2.5.4.4 1.7 2.4 2.1 2.5s.9-2.1 1.2-3.8.9-3.4.4-3.6c-.4-.2-2.1.7-2.6 1s-2 .6-2.3 1.4" style="fill:#006f2e"/><path d="M52.6 116.8c-.4.4-.5 1.3-.2 1.8s2.5 5.3 3.6 5.3 7.6-1.1 8.1-1.6c.5-.4 1.2-1.1 1-1.9s-2-4.5-3.2-5.2c-1.3-.6-8.2.7-9.3 1.6" style="fill:#d6f100"/><path d="M53.8 117.3c-.4.5 1.3 4 1.9 4 1.3-.1.9-1.4 1.8-2.3s2-1.5 1.6-2.2c-.7-1.2-4.9-.1-5.3.5" style="fill:#fff"/><path d="M89.9 107.7s-.4 3.4 5.6 3.6c6.2.2 6.7-4.3 4.8-5.7-1.3-.9-10.4 2.1-10.4 2.1" style="fill:#ec8816"/><path d="M97.2 108.7c3.9-.8 3.1-3.1 3.1-3.1s-1.5-1.9-5.8-1.4-4.6 3.5-4.6 3.5 2 2.1 7.3 1" style="fill:#fcc219"/><path d="M101.7 102.7s-1.6 4.3 6 4.2c2.7 0 4.4-.9 4.9-2 .7-1.5-.2-3.4-.6-3.5-.8-.3-8.5-.2-9.2.2-.7.3-.9.5-1.1 1.1" style="fill:#ec8816"/><path d="M107.3 105c3.6-.2 5.5-1.3 5.2-2.9s-3.4-2.1-5.2-2.1-5.4.8-5.5 2.6c-.3 1.8 3.4 2.5 5.5 2.4" style="fill:#fcc219"/><path d="M86.3 113.7s-.8.2-.8 1.8 1.4 3.1 6.2 3.2c8 0 5.9-5 5-5.6-.7-.5-10.4.6-10.4.6" style="fill:#ec8816"/><path d="M91.6 116.4c3.7 0 5.6-1 5.6-2.4s-2.8-2.2-5.7-2.2-5.6 1-5.7 2.4 3 2.2 5.8 2.2" style="fill:#fcc219"/></svg>