<?xml version="1.0" encoding="UTF-8"?>
<svg version="1.1" xmlns="http://www.w3.org/2000/svg" width="1024" height="1024">
<path d="M0 0 C0.93328125 -0.03738281 1.8665625 -0.07476563 2.828125 -0.11328125 C8.37856137 0.69553902 12.37818146 4.7465014 16.59204102 8.21850586 C39.61675737 27.18875347 65.15813451 41.95755492 91.75 55.3125 C93.11946777 56.00424316 93.11946777 56.00424316 94.51660156 56.70996094 C166.95050812 93.06884029 248.54741444 111.47836403 370.5625 124.8125 C377.75742516 125.18965333 383.99041574 125.55291574 389.25 130.8125 C391.23637237 134.12312062 391.87548909 136.65841081 391.89526367 140.44946289 C391.90154282 141.29092865 391.90782196 142.13239441 391.91429138 142.99935913 C391.91550491 143.91867218 391.91671844 144.83798523 391.91796875 145.78515625 C391.92220352 146.75377594 391.92643829 147.72239563 391.93080139 148.72036743 C391.9408327 151.93862072 391.94068369 155.15673352 391.9375 158.375 C391.93659363 160.04606308 391.93659363 160.04606308 391.93566895 161.75088501 C391.80349547 252.33404037 383.34997817 343.43528128 365.75 432.3125 C365.49313416 433.60972992 365.49313416 433.60972992 365.2310791 434.9331665 C348.44298842 519.27822354 322.78753258 601.6483309 282.75 682.3125 C282.18168457 683.45315918 281.61336914 684.59381836 281.02783203 685.76904297 C272.34549351 703.09160881 262.8293693 719.77808688 252.75 736.3125 C252.02321045 737.51253662 252.02321045 737.51253662 251.28173828 738.73681641 C235.38619531 764.93689264 217.27523169 789.94361146 197.36328125 813.23046875 C194.95918687 816.04885029 192.63232006 818.92421953 190.3125 821.8125 C185.57994915 827.61910495 180.52391286 833.08645003 175.40185547 838.54736328 C173.66884066 840.3992251 171.94501827 842.25932261 170.22265625 844.12109375 C153.27563457 862.41457851 153.27563457 862.41457851 144 870.34375 C141.66141958 872.39000787 139.38986086 874.49585665 137.11962891 876.6171875 C130.86534497 882.45572949 124.46650428 888.00511157 117.75 893.3125 C117.12029297 893.81475098 116.49058594 894.31700195 115.84179688 894.83447266 C84.83749679 919.53145393 51.36591187 940.91727237 14.75 956.3125 C13.10064453 957.0240625 13.10064453 957.0240625 11.41796875 957.75 C2.79321964 961.22402482 -4.75483772 961.39304131 -13.42651367 957.87524414 C-14.23451416 957.52453857 -15.04251465 957.17383301 -15.875 956.8125 C-17.17304565 956.2700061 -17.17304565 956.2700061 -18.49731445 955.71655273 C-25.91975879 952.56670624 -33.15203583 949.0855462 -40.2890625 945.33789062 C-42.27853604 944.29757827 -44.27864919 943.28040445 -46.28125 942.265625 C-64.1936901 933.09855818 -81.02338214 922.18341515 -97.25 910.3125 C-98.2915625 909.55582031 -99.333125 908.79914062 -100.40625 908.01953125 C-124.3353369 890.36218084 -146.22040439 870.40832068 -167.25 849.4375 C-167.79274567 848.89743317 -168.33549133 848.35736633 -168.89468384 847.80093384 C-174.90022317 841.81790036 -180.74973543 835.76949805 -186.25 829.3125 C-187.70445517 827.70481627 -189.16220895 826.10010285 -190.625 824.5 C-194.5204657 820.18340287 -198.21858218 815.7384887 -201.875 811.21875 C-203.96671446 808.65915204 -206.09137346 806.13581053 -208.23852539 803.62304688 C-214.45419334 796.34680801 -220.42060725 788.90121398 -226.25 781.3125 C-226.95527832 780.39476807 -226.95527832 780.39476807 -227.67480469 779.45849609 C-254.80840486 744.0121308 -277.93751909 706.02624773 -298.25 666.3125 C-298.79019775 665.26497559 -298.79019775 665.26497559 -299.34130859 664.19628906 C-301.71023812 659.59964787 -304.00049848 654.96869019 -306.25 650.3125 C-306.9313501 648.90629395 -306.9313501 648.90629395 -307.62646484 647.47167969 C-322.32524103 616.9525912 -334.49528907 585.41953528 -345.25 553.3125 C-345.59967834 552.26860107 -345.59967834 552.26860107 -345.9564209 551.20361328 C-373.16079966 469.68026043 -387.87818692 384.07941041 -395.25 275.3125 C-395.29236786 274.44706573 -395.33473572 273.58163147 -395.37838745 272.68997192 C-396.31038055 253.208638 -396.45235241 233.74863994 -396.4375 214.25 C-396.43723312 213.46503773 -396.43696625 212.68007545 -396.43669128 211.87132645 C-396.42828345 192.15668013 -396.36237934 172.44916455 -395.5 152.75 C-395.46933441 151.92450653 -395.43866882 151.09901306 -395.40707397 150.24850464 C-395.31815691 147.97526406 -395.20354403 145.70507718 -395.078125 143.43359375 C-395.0152832 142.2108374 -394.95244141 140.98808105 -394.88769531 139.72827148 C-393.9311956 134.60484598 -392.10727913 130.86428426 -388.01171875 127.44238281 C-384.40981496 125.96876093 -380.90221744 125.56069923 -377.0625 125.234375 C-376.27077393 125.15684998 -375.47904785 125.07932495 -374.66333008 124.99945068 C-372.19311777 124.75955248 -369.72176546 124.53574828 -367.25 124.3125 C-365.76808553 124.17010679 -364.28630841 124.02627527 -362.8046875 123.88085938 C-359.8494038 123.59104376 -356.89382189 123.30465762 -353.93798828 123.02050781 C-273.23228361 115.18956008 -192.57420997 98.46554574 -66.25 41.3125 C-65.47011719 40.87019043 -64.69023437 40.42788086 -63.88671875 39.97216797 C-45.98919629 29.77537138 -29.39209981 18.013973 -12.97607422 5.59179688 C-12.26080566 5.05103516 -11.54553711 4.51027344 -10.80859375 3.953125 C-9.85231079 3.22657715 -9.85231079 3.22657715 -8.87670898 2.48535156 C-5.84581721 0.30008905 -3.70430722 0.09615005 0 0 Z " fill="#84B0C1" transform="translate(514.25,31.6875)"/>
<path d="M0 0 C0 238.26 0 476.52 0 722 C-5.59702517 721.20042498 -9.31067903 720.22743915 -14.1875 717.8125 C-15.97220703 716.95591797 -15.97220703 716.95591797 -17.79296875 716.08203125 C-19.19536336 715.38812362 -20.59770116 714.69410115 -22 714 C-22.8971875 713.56671387 -23.794375 713.13342773 -24.71875 712.68701172 C-32.26525579 708.999065 -39.47432103 704.9031965 -46.625 700.5 C-47.18460419 700.15639435 -47.74420837 699.8127887 -48.32077026 699.45877075 C-58.06103628 693.4555483 -67.17156408 686.87121047 -76.01049805 679.61279297 C-78.19571145 677.8413462 -80.41861675 676.12504693 -82.6484375 674.41015625 C-86.09253296 671.74174799 -89.36727177 668.96595232 -92.5625 666 C-95.56323119 663.22306764 -98.58653642 660.4917983 -101.6875 657.828125 C-106.81794631 653.35161248 -111.62284165 648.56118707 -116.4375 643.75 C-117.32759766 642.87214844 -118.21769531 641.99429688 -119.13476562 641.08984375 C-124.42111059 635.81508318 -129.30688757 630.37815136 -133.95092773 624.52880859 C-136.08916878 621.88995469 -138.33081292 619.378816 -140.625 616.875 C-144.6719231 612.4171157 -148.37990038 607.80783368 -152 603 C-152.88120852 601.84872719 -153.76274586 600.69770603 -154.64453125 599.546875 C-164.24744987 586.94835921 -173.70953346 574.04948756 -181.64453125 560.3203125 C-182.60852517 558.6701327 -183.61021002 557.0417227 -184.63671875 555.4296875 C-203.27623751 526.12226807 -217.55774699 494.27624519 -230.20501709 462.01480103 C-231.03459392 459.91232533 -231.87819516 457.81582332 -232.72314453 455.71948242 C-237.09888271 444.78270117 -240.73343417 433.71417839 -244.125 422.4375 C-244.62829094 420.78431776 -245.13219655 419.13132252 -245.63671875 417.47851562 C-246.86912016 413.43273953 -248.08936164 409.38345741 -249.30203247 405.33172607 C-249.76043039 403.80033909 -250.21992957 402.26928123 -250.68063354 400.73858643 C-253.64422187 390.88371997 -256.38693332 381.00395729 -258.8125 371 C-258.97753021 370.32155029 -259.14256042 369.64310059 -259.31259155 368.9440918 C-265.97971462 341.38786298 -271.91137412 313.09360908 -275.375 284.9375 C-275.62227761 282.95962063 -275.86968404 280.98175737 -276.1171875 279.00390625 C-276.25350586 277.9070752 -276.38982422 276.81024414 -276.53027344 275.68017578 C-276.96213473 272.29666377 -277.41637517 268.91720372 -277.87863159 265.5377655 C-281.12469219 241.72722124 -283.2295534 217.96690517 -284.5569458 193.97247314 C-284.78352478 189.99858655 -285.083179 186.04934748 -285.50219727 182.09082031 C-286.05193411 176.77682596 -286.32998534 171.46989961 -286.54296875 166.1328125 C-286.58439499 165.1043924 -286.62582123 164.07597229 -286.66850281 163.01638794 C-287.10004603 151.49579736 -287.25621453 139.97580364 -287.29516602 128.44775391 C-287.30687864 126.03363271 -287.32761897 123.61954098 -287.35668945 121.20556641 C-287.39914325 117.65510098 -287.41547829 114.1053742 -287.42578125 110.5546875 C-287.44328934 109.47976044 -287.46079742 108.40483337 -287.47883606 107.29733276 C-287.46114202 101.22989169 -287.11542782 97.58993497 -283 93 C-279.86100271 91.43050136 -276.45133075 91.61879626 -272.99609375 91.421875 C-271.30584913 91.31579719 -269.61566581 91.20873918 -267.92553711 91.10083008 C-267.03172333 91.04440338 -266.13790955 90.98797668 -265.2170105 90.92984009 C-238.42014763 89.19602754 -212.3909204 85.18489961 -186.0625 80 C-185.23740936 79.83859528 -184.41231873 79.67719055 -183.56222534 79.51089478 C-172.5707322 77.3446881 -161.79256569 74.71571502 -151.03437805 71.59024048 C-148.91864547 70.97639635 -146.8000501 70.3733162 -144.68066406 69.7722168 C-126.1528044 64.49127758 -107.93901103 58.31212566 -90.15576172 50.89648438 C-88.21487259 50.08935585 -86.2660844 49.30128534 -84.31640625 48.515625 C-74.19150108 44.34861201 -64.59008079 39.25926144 -55 34 C-54.21431641 33.57058105 -53.42863281 33.14116211 -52.61914062 32.69873047 C-36.52968461 23.83617742 -20.83759532 13.84131372 -7.19140625 1.4765625 C-5 0 -5 0 0 0 Z " fill="#C8E3E6" transform="translate(513,148)"/>
<path d="M0 0 C6.68057597 0.27107049 10.1706687 2.90600142 15.25 7.0625 C16.75578129 8.25482763 18.26229141 9.44623542 19.76953125 10.63671875 C20.49479004 11.21599121 21.22004883 11.79526367 21.96728516 12.39208984 C26.20299312 15.74260301 30.60595936 18.86239121 35 22 C35.82628906 22.60328125 36.65257812 23.2065625 37.50390625 23.828125 C43.4323122 28.09583508 49.53465482 31.61480776 56 35 C57.49667949 35.8101167 58.99271931 36.62141579 60.48828125 37.43359375 C70.22232446 42.67689726 80.07513901 47.5260965 90.1875 52 C91.21375488 52.45656982 92.24000977 52.91313965 93.29736328 53.38354492 C98.73966348 55.7525201 104.13091715 57.74003562 109.84008789 59.36035156 C112.53829431 60.15941348 115.06060968 61.22063698 117.625 62.375 C132.79934042 68.82073752 149.13091464 72.65394694 165 77 C166.1852124 77.33056396 167.3704248 77.66112793 168.59155273 78.00170898 C177.31372086 80.394928 186.04185333 82.31285774 194.9375 83.9375 C195.9499025 84.12451477 195.9499025 84.12451477 196.98275757 84.31530762 C232.23723748 90.91442284 232.23723748 90.91442284 267.8984375 94.23046875 C268.71135254 94.26688477 269.52426758 94.30330078 270.36181641 94.34082031 C271.89222488 94.4027751 273.42325969 94.45151692 274.95458984 94.48339844 C280.56958809 94.68519767 285.57157783 95.56626323 289.67333984 99.67700195 C291.48869063 102.85570323 291.38849368 105.22774949 291.3984375 108.8828125 C291.40262192 109.58344315 291.40680634 110.28407379 291.41111755 111.00593567 C291.41754503 113.37937259 291.39805391 115.75167473 291.375 118.125 C291.36851944 119.38281784 291.36851944 119.38281784 291.36190796 120.66604614 C291.0066518 180.94257602 285.80875366 241.31416116 276.34146118 300.81735229 C275.89005555 303.7027739 275.47961873 306.59382354 275.0625 309.484375 C273.76198968 317.93735112 271.9994522 326.30554177 270.27856445 334.6809082 C269.69383469 337.53161676 269.11711908 340.38386545 268.54101562 343.23632812 C266.47523754 353.37263584 264.2594312 363.43130822 261.53947449 373.41517639 C260.30417632 378.09934333 259.77227324 382.1540551 260 387 C259.34 387 258.68 387 258 387 C257.77505859 387.94617188 257.55011719 388.89234375 257.31835938 389.8671875 C254.77865287 400.37891889 251.77117134 410.69447517 248.5 421 C248.24321472 421.81283447 247.98642944 422.62566895 247.72186279 423.46313477 C243.98528776 435.25462785 239.98474281 446.92437233 235.625 458.5 C235.38450928 459.13969727 235.14401855 459.77939453 234.89624023 460.43847656 C231.50986775 469.40520933 227.82203212 478.2131707 224 487 C223.5145874 488.14484863 223.0291748 489.28969727 222.52905273 490.46923828 C206.71319076 526.9899146 186.94041411 562.20226028 163 594 C162.55317871 594.59844727 162.10635742 595.19689453 161.64599609 595.81347656 C156.23268897 603.05170107 150.53292582 610.01501333 144.65234375 616.875 C142.20236332 619.74051546 139.84960455 622.67647665 137.5 625.625 C133.48681697 630.56596191 129.09409543 635.00644818 124.55078125 639.44921875 C122.43367802 641.56632198 120.48182994 643.70707786 118.5625 646 C114.31369423 650.96705627 109.41404595 655.23008485 104.55859375 659.58544922 C103.07268295 660.9340343 101.61366093 662.3120709 100.15625 663.69140625 C78.55928351 684.07206007 34.44473109 723 3 723 C3 484.74 3 246.48 3 1 C2.01 0.67 1.02 0.34 0 0 Z " fill="#AEBEC4" transform="translate(510,147)"/>
<path d="M0 0 C0 31.35 0 62.7 0 95 C-2.64 96.32 -5.28 97.64 -8 99 C-10.47125788 100.73407506 -10.47125788 100.73407506 -12.625 102.625 C-23.6888438 111.72156459 -35.51273918 119.34047748 -47.79248047 126.67285156 C-49.91588461 127.94943029 -52.0242066 129.2475529 -54.12890625 130.5546875 C-60.0425312 134.20905914 -65.82108871 137.60165303 -72.37890625 139.9921875 C-75.6452179 141.24808676 -78.78126513 142.74485195 -81.9375 144.25 C-105.53391619 155.37308174 -129.97181856 163.72152955 -155 171 C-155.88977539 171.26022949 -156.77955078 171.52045898 -157.69628906 171.78857422 C-168.95667019 175.05404333 -180.292376 177.82614981 -191.75 180.3125 C-192.91619873 180.56717041 -194.08239746 180.82184082 -195.28393555 181.08422852 C-200.21499489 182.12715272 -205.05108749 183.07490098 -210.078125 183.48046875 C-213.63113079 183.77675931 -216.85464368 184.4300208 -220.29296875 185.37109375 C-229.48176126 187.78287722 -238.90878924 188.82866976 -248.3125 190.0625 C-249.29934784 190.19450806 -250.28619568 190.32651611 -251.302948 190.46252441 C-265.48607417 192.35102563 -279.61358065 193.79310431 -293.90942383 194.41821289 C-295.06466553 194.47098389 -296.21990723 194.52375488 -297.41015625 194.578125 C-298.40152588 194.61325195 -299.39289551 194.64837891 -300.41430664 194.68457031 C-303.10370185 195.01265063 -304.74047717 195.52244045 -307 197 C-309.4367542 200.6551313 -309.24795403 202.38492859 -309.24291992 206.74023438 C-309.24576744 207.76312813 -309.24576744 207.76312813 -309.24867249 208.8066864 C-309.25238517 211.06915692 -309.24165191 213.33130773 -309.23046875 215.59375 C-309.2292749 217.18062299 -309.22882422 218.7674967 -309.2290802 220.35437012 C-309.2275134 223.69348536 -309.21922196 227.03249372 -309.20581055 230.37158203 C-309.18903886 234.59533623 -309.18508316 238.81897175 -309.18562126 243.04275513 C-309.45974032 269.67044025 -309.45974032 269.67044025 -307.48095703 296.18701172 C-307.12101963 299.04056623 -306.85098732 301.79608506 -306.75390625 304.6640625 C-306.72103516 305.47746094 -306.68816406 306.29085938 -306.65429688 307.12890625 C-306.59396491 308.76942226 -306.5365845 310.41004997 -306.48242188 312.05078125 C-306.27837005 316.95572523 -305.78832074 321.72988557 -305.05859375 326.5859375 C-303.7346978 335.42110007 -303.04420425 344.2866484 -302.32275391 353.18652344 C-301.53269716 362.85335471 -300.46636642 372.40704233 -299 382 C-298.71167993 384.01405728 -298.42517762 386.02837574 -298.140625 388.04296875 C-296.23725117 401.24989951 -294.13221092 414.41211662 -291.875 427.5625 C-291.7469397 428.3103476 -291.61887939 429.05819519 -291.48693848 429.82870483 C-290.10029447 437.90800814 -288.68356688 445.9762462 -287 454 C-286.82645996 454.82975342 -286.65291992 455.65950684 -286.47412109 456.5144043 C-281.8122835 478.58496962 -276.75724513 500.46946336 -270 522 C-269.33229074 524.16634559 -268.6655071 526.33297688 -268 528.5 C-267.53787109 529.99080078 -267.53787109 529.99080078 -267.06640625 531.51171875 C-266.20686816 534.32332136 -265.36265245 537.13819587 -264.52734375 539.95703125 C-264.26501953 540.84003906 -264.00269531 541.72304688 -263.73242188 542.6328125 C-263.21697822 544.37037686 -262.703816 546.10862028 -262.19335938 547.84765625 C-260.66603134 552.99061608 -258.9411145 557.99997935 -257 563 C-255.76150238 566.24652414 -254.53535709 569.49755754 -253.3125 572.75 C-252.99216797 573.58660156 -252.67183594 574.42320312 -252.34179688 575.28515625 C-252.03951172 576.09339844 -251.73722656 576.90164063 -251.42578125 577.734375 C-251.01453003 578.82057129 -251.01453003 578.82057129 -250.5949707 579.92871094 C-250 582 -250 582 -250 586 C-249.34 586 -248.68 586 -248 586 C-247.84144531 586.61746094 -247.68289063 587.23492188 -247.51953125 587.87109375 C-246.02110587 593.31012952 -244.09740201 597.83089126 -241.2421875 602.6796875 C-239.94686722 605.09924802 -239.06414227 607.46360477 -238.1875 610.0625 C-236.22080069 615.78454284 -233.58062096 621.06177323 -230.81713867 626.42993164 C-226 635.79588031 -226 635.79588031 -226 640 C-225.34 640 -224.68 640 -224 640 C-223.5875 640.83660156 -223.175 641.67320312 -222.75 642.53515625 C-202.09000109 684.17796655 -176.1764724 724.25566215 -144.4140625 758.375 C-143.12613888 759.77546064 -141.84434268 761.18261641 -140.61010742 762.63061523 C-135.31705554 768.83847547 -129.57822674 774.57333195 -123.80297852 780.32739258 C-122.066064 782.058947 -120.33456111 783.79578359 -118.60351562 785.53320312 C-112.90804187 791.23281184 -107.19552966 796.83804377 -101 802 C-100.38374756 802.51763916 -99.76749512 803.03527832 -99.13256836 803.56860352 C-84.22805416 815.98871053 -68.71108061 827.13737513 -52.32617188 837.5234375 C-50.89140072 838.43417385 -49.45971455 839.34981739 -48.03320312 840.2734375 C-33.21631016 849.86178518 -16.73261661 857.42246113 0 863 C0.33 873.23 0.66 883.46 1 894 C2.32 894.33 3.64 894.66 5 895 C9.59873871 899.91958094 11.32703386 903.14767191 11.21484375 909.94140625 C10.74129167 914.47889622 8.77725298 917.281041 5.5 920.3125 C2.04149061 922.64699384 -0.48834114 923.12290763 -4.5625 923.0625 C-5.34753906 923.05347656 -6.13257813 923.04445313 -6.94140625 923.03515625 C-7.96041016 923.01775391 -7.96041016 923.01775391 -9 923 C-9.66 923 -10.32 923 -11 923 C-7.32315889 925.56523798 -4.2129476 927.31482096 0 929 C0 939.23 0 949.46 0 960 C-9.00734394 958.87408201 -9.00734394 958.87408201 -12.375 957.43359375 C-13.12426758 957.11712891 -13.87353516 956.80066406 -14.64550781 956.47460938 C-15.42249023 956.13236328 -16.19947266 955.79011719 -17 955.4375 C-18.2389502 954.90286133 -18.2389502 954.90286133 -19.50292969 954.35742188 C-26.83852028 951.15285293 -34.01775881 947.67286373 -41.11767578 943.97802734 C-42.93637956 943.03305623 -44.76242758 942.10376211 -46.58984375 941.17578125 C-63.94658253 932.25378361 -80.26588493 921.51061463 -96 910 C-97.0415625 909.24332031 -98.083125 908.48664062 -99.15625 907.70703125 C-123.0853369 890.04968084 -144.97040439 870.09582068 -166 849.125 C-166.54274567 848.58493317 -167.08549133 848.04486633 -167.64468384 847.48843384 C-173.65022317 841.50540036 -179.49973543 835.45699805 -185 829 C-186.45445517 827.39231627 -187.91220895 825.78760285 -189.375 824.1875 C-193.2704657 819.87090287 -196.96858218 815.4259887 -200.625 810.90625 C-202.71671446 808.34665204 -204.84137346 805.82331053 -206.98852539 803.31054688 C-213.20419334 796.03430801 -219.17060725 788.58871398 -225 781 C-225.70527832 780.08226807 -225.70527832 780.08226807 -226.42480469 779.14599609 C-253.55840486 743.6996308 -276.68751909 705.71374773 -297 666 C-297.54019775 664.95247559 -297.54019775 664.95247559 -298.09130859 663.88378906 C-300.46023812 659.28714787 -302.75049848 654.65619019 -305 650 C-305.6813501 648.59379395 -305.6813501 648.59379395 -306.37646484 647.15917969 C-321.07524103 616.6400912 -333.24528907 585.10703528 -344 553 C-344.34967834 551.95610107 -344.34967834 551.95610107 -344.7064209 550.89111328 C-371.91079966 469.36776043 -386.62818692 383.76691041 -394 275 C-394.04236786 274.13456573 -394.08473572 273.26913147 -394.12838745 272.37747192 C-395.06038055 252.896138 -395.20235241 233.43613994 -395.1875 213.9375 C-395.18723312 213.15253773 -395.18696625 212.36757545 -395.18669128 211.55882645 C-395.17828345 191.84418013 -395.11237934 172.13666455 -394.25 152.4375 C-394.21933441 151.61200653 -394.18866882 150.78651306 -394.15707397 149.93600464 C-394.06815691 147.66276406 -393.95354403 145.39257718 -393.828125 143.12109375 C-393.7652832 141.8983374 -393.70244141 140.67558105 -393.63769531 139.41577148 C-392.6811956 134.29234598 -390.85727913 130.55178426 -386.76171875 127.12988281 C-383.15981496 125.65626093 -379.65221744 125.24819923 -375.8125 124.921875 C-375.02077393 124.84434998 -374.22904785 124.76682495 -373.41333008 124.68695068 C-370.94311777 124.44705248 -368.47176546 124.22324828 -366 124 C-364.51808553 123.85760679 -363.03630841 123.71377527 -361.5546875 123.56835938 C-358.5994038 123.27854376 -355.64382189 122.99215762 -352.68798828 122.70800781 C-271.98228361 114.87706008 -191.32420997 98.15304574 -65 41 C-64.22011719 40.55769043 -63.44023437 40.11538086 -62.63671875 39.65966797 C-44.73919629 29.46287138 -28.14209981 17.701473 -11.72607422 5.27929688 C-11.01080566 4.73853516 -10.29553711 4.19777344 -9.55859375 3.640625 C-8.60231079 2.91407715 -8.60231079 2.91407715 -7.62670898 2.17285156 C-4.70094025 0.06338241 -3.86847722 0 0 0 Z " fill="#AEBEC4" transform="translate(513,32)"/>
<path d="M0 0 C7.12044533 1.47147557 13.81291926 8.80173105 19.33398438 13.24023438 C24.37940529 17.22753632 29.50971074 20.52205825 35.23046875 23.4609375 C35.23046875 24.1209375 35.23046875 24.7809375 35.23046875 25.4609375 C35.89433594 25.69554687 36.55820312 25.93015625 37.2421875 26.171875 C41.06075581 27.81910055 44.49296175 29.9309954 48.04296875 32.0859375 C55.67831478 36.65188935 63.47075454 40.72698214 71.47363281 44.60449219 C74.77330841 46.21306111 78.039448 47.88890459 81.3125 49.55078125 C83.37095178 50.57500207 83.37095178 50.57500207 86.23046875 51.4609375 C86.23046875 52.1209375 86.23046875 52.7809375 86.23046875 53.4609375 C87.46796875 53.6878125 88.70546875 53.9146875 89.98046875 54.1484375 C94.76752802 55.21961589 99.04028588 56.96529603 103.53515625 58.90234375 C115.0717796 63.83032544 126.81123653 68.29505141 138.93359375 71.5390625 C142.46273155 72.52588302 145.89440821 73.6952362 149.35546875 74.8984375 C162.36623487 79.29378439 175.81517898 82.24257201 189.23168945 85.11743164 C192.34559056 85.78931527 195.36326491 86.50204884 198.41015625 87.4453125 C204.04847488 88.94425201 209.77396287 89.68932615 215.54296875 90.5234375 C217.89367662 90.86542799 220.2439635 91.21032897 222.59375 91.55859375 C224.14509644 91.78301147 224.14509644 91.78301147 225.7277832 92.01196289 C228.23046875 92.4609375 228.23046875 92.4609375 230.23046875 93.4609375 C233.7792848 93.66265968 237.32172416 93.8050039 240.875 93.890625 C246.54498824 94.12010176 251.63096444 95.25942135 257.10644531 96.71240234 C262.32223142 97.96213665 267.59147878 98.51950256 272.91796875 99.0859375 C274.04412598 99.21218506 275.1702832 99.33843262 276.33056641 99.46850586 C284.22782519 100.32611907 292.09683854 100.89194168 300.03515625 101.15234375 C304.84675535 101.61703364 304.84675535 101.61703364 307.23046875 103.4609375 C309.69181468 107.6578965 310.61333159 110.74706524 310.62890625 115.59375 C310.6350293 116.84293213 310.64115234 118.09211426 310.64746094 119.37915039 C310.63505674 120.78142776 310.62098935 122.18369116 310.60546875 123.5859375 C310.60148071 124.31956512 310.59749268 125.05319275 310.59338379 125.80905151 C310.32888971 168.72999735 307.13361295 211.73485255 303.23046875 254.4609375 C303.16150391 255.21681152 303.09253906 255.97268555 303.02148438 256.75146484 C301.69421109 271.17077787 299.91307665 285.47426478 297.58789062 299.76757812 C296.69399711 305.26270838 295.94281536 310.72091933 295.47485352 316.26977539 C295.14510303 319.22632944 294.46455568 322.05612673 293.7734375 324.9453125 C292.66736315 330.06985841 291.98393985 335.27481198 291.23046875 340.4609375 C290.57046875 340.4609375 289.91046875 340.4609375 289.23046875 340.4609375 C289.29234375 342.0696875 289.29234375 342.0696875 289.35546875 343.7109375 C289.37590413 349.39197373 288.26965106 354.89388943 287.23046875 360.4609375 C286.57046875 360.4609375 285.91046875 360.4609375 285.23046875 360.4609375 C285.28460937 361.54375 285.33875 362.6265625 285.39453125 363.7421875 C285.38714479 369.35589335 283.98438025 374.54879435 282.60546875 379.9609375 C282.33476563 381.05172607 282.0640625 382.14251465 281.78515625 383.26635742 C281.21964704 385.54099386 280.65026899 387.81467173 280.07714844 390.08740234 C279.27132716 393.29814007 278.48556916 396.5130209 277.70703125 399.73046875 C274.07646604 414.64894361 269.96841462 429.37601559 265.07641602 443.93188477 C264.07457297 446.92700513 263.09218985 449.92827039 262.109375 452.9296875 C261.33732264 455.27346486 260.56518557 457.61721432 259.79296875 459.9609375 C259.2196582 461.71857422 259.2196582 461.71857422 258.63476562 463.51171875 C256.7136693 469.32393209 254.67965718 474.96034212 252.1081543 480.51611328 C250.83746711 483.3317723 249.84977076 486.22547165 248.85546875 489.1484375 C246.69945035 495.29806538 244.2416262 501.25842048 241.62890625 507.2265625 C240.45017922 509.95278033 239.35339163 512.68752382 238.29296875 515.4609375 C236.16751173 520.87771403 233.49009468 526.00349357 230.81640625 531.1640625 C229.34450921 534.22386817 228.22290849 537.21831261 227.23046875 540.4609375 C226.57046875 540.4609375 225.91046875 540.4609375 225.23046875 540.4609375 C225.09898437 541.47607422 225.09898437 541.47607422 224.96484375 542.51171875 C224.03980262 546.22664456 222.32945952 549.3313042 220.48046875 552.6484375 C219.75548322 553.97600206 219.03152736 555.30412944 218.30859375 556.6328125 C217.95474609 557.28056641 217.60089844 557.92832031 217.23632812 558.59570312 C215.13168573 562.4984866 213.17940621 566.47873355 211.23046875 570.4609375 C210.57046875 570.4609375 209.91046875 570.4609375 209.23046875 570.4609375 C209.07578125 571.5746875 209.07578125 571.5746875 208.91796875 572.7109375 C208.16835185 575.70940509 207.08945997 577.03518066 205.23046875 579.4609375 C204.43509416 580.84293388 203.6647384 582.23958342 202.91796875 583.6484375 C200.74800092 587.61915476 198.36084955 591.35848703 195.81640625 595.09765625 C194.14886283 597.58254237 192.56413553 600.10936611 190.98046875 602.6484375 C184.39542976 613.02530113 177.02830921 622.83736423 169.49609375 632.5390625 C165.9587032 637.10107653 162.43321187 641.65682282 159.23046875 646.4609375 C158.57046875 646.4609375 157.91046875 646.4609375 157.23046875 646.4609375 C157.02808594 647.14542969 156.82570313 647.82992187 156.6171875 648.53515625 C154.74782696 652.47924369 152.05870758 655.16021257 149.04296875 658.2734375 C147.85849838 659.52000097 146.67489712 660.76739085 145.4921875 662.015625 C144.9254834 662.61084961 144.3587793 663.20607422 143.77490234 663.81933594 C141.91231604 665.79910677 140.12401297 667.8344614 138.35546875 669.8984375 C135.15618727 673.60453584 131.72852798 677.03855744 128.23046875 680.4609375 C127.36421875 681.3271875 126.49796875 682.1934375 125.60546875 683.0859375 C124.0286453 684.66276095 122.45053 686.23829367 120.87109375 687.8125 C119.2172409 689.4712459 117.57246756 691.13915033 115.94140625 692.8203125 C110.91930132 697.95999179 105.73467127 702.66496858 100.1171875 707.14453125 C98.02926302 708.81995644 95.97538645 710.51201381 93.9375 712.24609375 C93.39206543 712.70886719 92.84663086 713.17164063 92.28466797 713.6484375 C90.74255807 714.95999941 89.20323801 716.27483945 87.6640625 717.58984375 C85.23046875 719.4609375 85.23046875 719.4609375 83.23046875 719.4609375 C83.23046875 720.1209375 83.23046875 720.7809375 83.23046875 721.4609375 C81.33203125 722.96875 81.33203125 722.96875 78.85546875 724.5859375 C78.04335938 725.12476563 77.23125 725.66359375 76.39453125 726.21875 C74.23046875 727.4609375 74.23046875 727.4609375 72.23046875 727.4609375 C72.23046875 728.1209375 72.23046875 728.7809375 72.23046875 729.4609375 C70.45017155 730.80506188 68.60313128 732.06130569 66.73046875 733.2734375 C66.17657471 733.63381104 65.62268066 733.99418457 65.05200195 734.36547852 C63.44961943 735.40472937 61.84020136 736.43310823 60.23046875 737.4609375 C59.55371094 737.89664063 58.87695312 738.33234375 58.1796875 738.78125 C56.20995865 740.03034634 54.22016186 741.24387436 52.23046875 742.4609375 C51.21210937 743.10546875 50.19375 743.75 49.14453125 744.4140625 C35.58001491 752.88857264 21.07246836 759.72421167 6.21484375 765.62109375 C4.26734987 766.29886101 4.26734987 766.29886101 3.23046875 767.4609375 C-16.03129285 769.0333262 -40.16560525 751.46821412 -55.76953125 741.4609375 C-56.44806152 741.0292627 -57.1265918 740.59758789 -57.82568359 740.15283203 C-84.16677272 723.30900451 -107.40803635 702.82058399 -129.54684448 680.85784912 C-130.59371155 679.81968045 -131.64194229 678.78288466 -132.69168091 677.74761963 C-138.76534957 671.74794105 -144.48789959 665.60923073 -149.79443359 658.90356445 C-151.77854386 656.44979149 -153.86394666 654.13951589 -156.01953125 651.8359375 C-162.43873467 644.77928705 -168.06233171 637.09377231 -173.76953125 629.4609375 C-174.25212402 628.81962891 -174.7347168 628.17832031 -175.23193359 627.51757812 C-189.98902962 607.88282996 -203.27277566 587.17318376 -214.76953125 565.4609375 C-215.8085989 563.5428606 -216.85030626 561.62621156 -217.89453125 559.7109375 C-218.384375 558.80859375 -218.87421875 557.90625 -219.37890625 556.9765625 C-220.59446187 554.77763604 -221.85737988 552.61827571 -223.14453125 550.4609375 C-224.76953125 547.4609375 -224.76953125 547.4609375 -224.76953125 544.4609375 C-225.42953125 544.4609375 -226.08953125 544.4609375 -226.76953125 544.4609375 C-227.11564453 543.67674438 -227.11564453 543.67674438 -227.46875 542.87670898 C-229.35642493 538.61311909 -231.26581415 534.36059519 -233.20703125 530.12109375 C-233.62726563 529.20263672 -234.0475 528.28417969 -234.48046875 527.33789062 C-235.33836513 525.46481686 -236.19773557 523.59241751 -237.05859375 521.72070312 C-239.49396913 516.39051805 -241.78843463 511.03571241 -243.90551758 505.57080078 C-244.8195389 503.24049583 -244.8195389 503.24049583 -246.45703125 500.2734375 C-247.98508271 496.99904151 -248.41167756 494.0394744 -248.76953125 490.4609375 C-249.42953125 490.4609375 -250.08953125 490.4609375 -250.76953125 490.4609375 C-251.16785156 489.24277344 -251.56617188 488.02460937 -251.9765625 486.76953125 C-252.51155581 485.14577964 -253.04672121 483.52208472 -253.58203125 481.8984375 C-253.84306641 481.09857422 -254.10410156 480.29871094 -254.37304688 479.47460938 C-255.57875053 475.82772794 -256.81564576 472.24154999 -258.359375 468.72265625 C-259.63409906 465.77419479 -260.62037718 462.91511606 -261.51953125 459.8359375 C-263.59438707 452.91441076 -265.88516249 446.07387817 -268.21972656 439.23583984 C-270.01359581 433.92602733 -271.60041832 428.59570488 -273.04370117 423.18017578 C-273.73934093 420.57404204 -274.46401699 417.97802691 -275.19921875 415.3828125 C-278.40465342 403.95974913 -281.16045683 392.50617033 -283.609375 380.8984375 C-284.92048274 374.68735161 -286.38477574 368.51781882 -287.875 362.34765625 C-289.70561439 354.3936767 -291.17993818 346.37037905 -292.609375 338.3359375 C-292.77618271 337.39861786 -292.94299042 336.46129822 -293.11485291 335.49557495 C-293.64845368 332.48452758 -294.17852819 329.47288367 -294.70703125 326.4609375 C-294.88727844 325.43470276 -295.06752563 324.40846802 -295.25323486 323.35113525 C-297.6746564 309.49839561 -299.83194351 295.70482697 -301.19921875 281.703125 C-301.55836714 278.0625586 -302.09279754 274.50216262 -302.7421875 270.90234375 C-304.13824331 262.82814036 -304.6910787 254.68478707 -305.33203125 246.5234375 C-305.52013118 244.15878717 -305.70975248 241.79428883 -305.90281677 239.43003845 C-306.02164986 237.97224629 -306.13759584 236.51421482 -306.25013733 235.05592346 C-306.54162602 231.45329218 -307.04063962 227.99709246 -307.76953125 224.4609375 C-307.89643302 222.93599031 -307.98989948 221.40791292 -308.05078125 219.87890625 C-308.10685547 218.60370117 -308.10685547 218.60370117 -308.1640625 217.30273438 C-308.21626953 215.98885742 -308.21626953 215.98885742 -308.26953125 214.6484375 C-308.33942929 212.91263623 -308.41231018 211.17695232 -308.48828125 209.44140625 C-308.51857422 208.67723389 -308.54886719 207.91306152 -308.58007812 207.12573242 C-308.78493498 204.24427287 -309.15459375 201.39620718 -309.52249146 198.53175354 C-311.62591424 180.89976981 -311.02262189 162.84370756 -311.06469727 145.11328125 C-311.07591364 140.8890312 -311.11057519 136.66528606 -311.14986897 132.44121742 C-311.17596702 129.16239437 -311.18438118 125.88369608 -311.18797874 122.60477829 C-311.19283384 121.04586606 -311.20441708 119.486959 -311.22301674 117.92815018 C-311.24734562 115.76108051 -311.24646004 113.59538679 -311.23950195 111.42822266 C-311.24830132 109.58558334 -311.24830132 109.58558334 -311.25727844 107.70571899 C-310.67474311 103.83035101 -309.53779535 102.18933202 -306.76953125 99.4609375 C-303.61986757 98.41104961 -301.13079166 98.22924911 -297.8203125 98.06640625 C-296.59570312 98.00018066 -295.37109375 97.93395508 -294.109375 97.86572266 C-293.45437012 97.83085754 -292.79936523 97.79599243 -292.12451172 97.7600708 C-252.71741832 97.06416913 -252.71741832 97.06416913 -215.76953125 87.4609375 C-213.79333587 87.20742248 -211.81321132 86.98449105 -209.83203125 86.7734375 C-192.34701788 84.65036754 -174.93658188 80.14814055 -158.06738281 75.14257812 C-156.45630319 74.6646633 -154.84351287 74.19249542 -153.22949219 73.72460938 C-131.51780216 67.42656189 -110.23946791 59.98502432 -89.45703125 51.0859375 C-88.28889893 50.58618408 -87.1207666 50.08643066 -85.91723633 49.5715332 C-79.28732442 46.69178023 -79.28732442 46.69178023 -72.9140625 43.296875 C-70.24882541 41.74077384 -67.63436512 40.56755914 -64.79248047 39.390625 C-60.13363552 37.24955795 -55.75113775 34.5511003 -51.33203125 31.9609375 C-50.26742676 31.33727295 -49.20282227 30.7136084 -48.10595703 30.07104492 C-35.22833371 22.4548172 -23.21851503 14.04278226 -11.5625 4.67578125 C-7.47133938 1.43146227 -5.25409773 0.23071886 0 0 Z M-9.51953125 23.7109375 C-10.67081102 24.63446773 -11.82458353 25.55489671 -12.98046875 26.47265625 C-13.59245117 26.96040527 -14.20443359 27.4481543 -14.83496094 27.95068359 C-24.98721605 35.87620733 -35.73706432 42.96989639 -46.89697266 49.38427734 C-48.801751 50.47946281 -50.69757099 51.5892251 -52.59375 52.69921875 C-62.70768751 58.56145344 -73.1232283 63.64291865 -83.76953125 68.4609375 C-84.48318848 68.78916504 -85.1968457 69.11739258 -85.93212891 69.45556641 C-107.22757305 79.18287125 -130.1905527 86.35976008 -152.76953125 92.4609375 C-153.44902832 92.64785156 -154.12852539 92.83476562 -154.82861328 93.02734375 C-186.18583292 101.57609602 -219.30739917 108.14483113 -251.77734375 110.2578125 C-253.17927475 110.35023224 -253.17927475 110.35023224 -254.60952759 110.44451904 C-259.2152931 110.74050903 -263.81965555 111.00075096 -268.43017578 111.20996094 C-270.11101991 111.30372683 -271.7918476 111.39778789 -273.47265625 111.4921875 C-274.23885284 111.51609558 -275.00504944 111.54000366 -275.79446411 111.56463623 C-279.77472136 111.80819392 -281.60998156 112.32948162 -284.72558594 114.89648438 C-287.48041426 118.35285283 -287.89501994 119.93178572 -287.89892578 124.26416016 C-287.90207794 125.2676651 -287.9052301 126.27117004 -287.90847778 127.30508423 C-287.90645355 128.40065643 -287.90442932 129.49622864 -287.90234375 130.625 C-287.90330048 131.76383636 -287.9042572 132.90267273 -287.90524292 134.07601929 C-287.90592559 136.50559545 -287.90406531 138.93517341 -287.89990234 141.36474609 C-287.89466321 144.99451097 -287.89978693 148.62414582 -287.90625 152.25390625 C-287.91378975 173.4553311 -287.1204856 194.55022728 -285.5222168 215.68994141 C-285.33085345 218.22654979 -285.14648006 220.76359953 -284.96289062 223.30078125 C-283.6187589 241.59917703 -281.66502533 259.82596736 -279.59228516 278.05444336 C-279.26699949 280.92074648 -278.9459405 283.78750435 -278.625 286.65429688 C-276.74308564 303.34095811 -274.07276734 319.81558024 -271.08203125 336.3359375 C-270.90723236 337.30192871 -270.73243347 338.26791992 -270.55233765 339.26318359 C-267.42773115 356.45339402 -263.84625595 373.47021793 -259.76953125 390.4609375 C-259.34724558 392.26943541 -258.92533712 394.07802146 -258.50390625 395.88671875 C-255.49431469 408.57301774 -251.64961718 420.98949188 -247.72753906 433.41943359 C-246.86560463 436.15592166 -246.01419858 438.89534269 -245.16796875 441.63671875 C-229.71561258 491.52123295 -208.38803474 539.10562089 -180.76953125 583.4609375 C-180.228125 584.34136719 -179.68671875 585.22179687 -179.12890625 586.12890625 C-170.82674608 599.44863409 -161.52973079 612.17745477 -151.76953125 624.4609375 C-151.26276855 625.09918457 -150.75600586 625.73743164 -150.23388672 626.39501953 C-144.10432949 634.08690454 -137.88738515 641.63469161 -131.18359375 648.8359375 C-129.28412488 650.90137937 -127.44870545 652.9934384 -125.62109375 655.12109375 C-121.13680745 660.26097042 -116.33935917 665.07513207 -111.51953125 669.8984375 C-110.64167969 670.78853516 -109.76382813 671.67863281 -108.859375 672.59570312 C-103.55074211 677.9159948 -98.07368712 682.82745284 -92.18847656 687.50341797 C-89.95943381 689.30725979 -87.8572549 691.18445984 -85.76953125 693.1484375 C-71.79424081 705.6396263 -55.70053989 715.6952292 -39.76953125 725.4609375 C-39.09019531 725.88133301 -38.41085937 726.30172852 -37.7109375 726.73486328 C-28.4660647 732.42006915 -18.84798001 736.53977447 -8.76953125 740.4609375 C-7.92519531 740.85539063 -7.08085937 741.24984375 -6.2109375 741.65625 C0.00921861 743.70641345 5.19727787 742.10311633 10.98046875 739.5859375 C12.06932373 739.12380859 12.06932373 739.12380859 13.18017578 738.65234375 C26.07735313 733.04845838 38.59932738 726.36686017 50.23046875 718.4609375 C50.8239209 718.06293945 51.41737305 717.66494141 52.02880859 717.25488281 C61.36687984 710.98924834 70.42413394 704.45353237 79.23046875 697.4609375 C80.63039063 696.35298828 80.63039063 696.35298828 82.05859375 695.22265625 C88.45894579 690.07494454 94.54785571 684.62546395 100.55029297 679.0234375 C102.38521322 677.31703099 104.23121603 675.62310739 106.078125 673.9296875 C114.80213802 665.92049131 114.80213802 665.92049131 122.76953125 657.171875 C124.29415276 655.38635569 125.91537239 653.7773539 127.60546875 652.1484375 C131.30728841 648.5042017 134.52085656 644.52932233 137.7734375 640.484375 C139.93584102 637.82348418 142.14120047 635.21298501 144.37548828 632.61303711 C148.83665148 627.41346918 153.0740052 622.14380503 157.03515625 616.546875 C158.67989172 614.23488031 160.34871997 611.95653856 162.05078125 609.6875 C175.71154618 591.34524902 187.49409947 571.64064014 198.23046875 551.4609375 C198.70967773 550.5627832 199.18888672 549.66462891 199.68261719 548.73925781 C208.2488818 532.63337665 216.47998757 516.42223054 223.23046875 499.4609375 C223.69573975 498.29860596 223.69573975 498.29860596 224.17041016 497.11279297 C232.3823064 476.55436618 239.96489566 455.82975959 246.60546875 434.7109375 C246.92232132 433.70947189 246.92232132 433.70947189 247.24557495 432.68777466 C249.72806512 424.81563728 251.90635319 416.96421774 253.54150391 408.86621094 C253.7688623 408.0724707 253.9962207 407.27873047 254.23046875 406.4609375 C254.89046875 406.1309375 255.55046875 405.8009375 256.23046875 405.4609375 C256.58304602 403.56801261 256.58304602 403.56801261 256.65625 401.2578125 C257.2029455 394.56464677 258.82008578 388.2197413 260.41796875 381.7109375 C262.99914486 370.97853702 265.38298497 360.22355961 267.54296875 349.3984375 C267.78490967 348.19413086 268.02685059 346.98982422 268.27612305 345.74902344 C269.55958851 339.24347769 270.69864701 332.73510139 271.67407227 326.17651367 C272.09032478 323.39680895 272.51929396 320.62068639 272.96069336 317.8449707 C282.27587247 259.15916557 287.07419018 199.60983057 287.70223999 140.18191528 C287.72080911 138.51537208 287.74666727 136.84889139 287.78042603 135.18258667 C287.8212948 132.93474637 287.82857387 130.68955408 287.82421875 128.44140625 C287.83485352 126.58358521 287.83485352 126.58358521 287.84570312 124.68823242 C287.04564612 120.49142544 285.55031118 119.07902225 282.23046875 116.4609375 C278.7614848 114.66716563 275.76628755 114.17167142 271.890625 113.96875 C270.84374512 113.9059082 269.79686523 113.84306641 268.71826172 113.77832031 C267.58791504 113.71483398 266.45756836 113.65134766 265.29296875 113.5859375 C233.0918932 111.45341594 200.58068953 106.20867855 169.23046875 98.4609375 C168.33183105 98.23937988 167.43319336 98.01782227 166.50732422 97.78955078 C155.74160154 95.11020135 145.1226819 92.25429844 134.640625 88.609375 C131.15490084 87.43548851 127.65202654 86.43419705 124.10546875 85.4609375 C117.29106321 83.54892697 110.79270167 81.09824151 104.23046875 78.4609375 C103.13992188 78.04328125 102.049375 77.625625 100.92578125 77.1953125 C68.35811051 64.57443341 38.15103883 48.05935017 10.9362793 26.12792969 C5.39852351 21.49496603 5.39852351 21.49496603 -1.22265625 19.0078125 C-4.83757655 19.65095783 -6.69416088 21.38330077 -9.51953125 23.7109375 Z " fill="#327888" transform="translate(513.76953125,127.5390625)"/>
<path d="M0 0 C3.98748049 1.7756749 5.77231868 4.59017363 7.875 8.375 C9.45279803 13.45901587 9.68794021 17.08905497 7.875 22.125 C5.18516507 26.24941356 2.61246071 29.22435137 -2.14453125 30.63671875 C-7.4954685 31.48448223 -11.34188917 30.98822204 -16 28 C-19.52648034 24.08342227 -21.76277456 20.55514456 -22.5625 15.3125 C-21.53514209 9.26250342 -18.98070929 4.9781943 -14.2265625 1.14453125 C-9.68266118 -1.19119346 -4.92187814 -0.90234433 0 0 Z " fill="#EBEDF0" transform="translate(163,275)"/>
<path d="M0 0 C3.86446702 2.96892302 5.63571562 6.56925032 7.05078125 11.12890625 C7.60400315 16.3845143 6.94214006 19.69548941 4.05078125 24.12890625 C0.15069683 28.30756813 -2.8944216 30.00663603 -8.64453125 30.31640625 C-13.60399374 29.91292456 -17.25256235 28.03146755 -20.55859375 24.32421875 C-23.59152485 19.94521148 -24.74993981 16.53377342 -23.94921875 11.12890625 C-22.17232866 6.45287971 -19.70242174 3.41295886 -15.94921875 0.12890625 C-10.98065084 -1.52728305 -4.89932775 -2.18947913 0 0 Z " fill="#B5E1E8" transform="translate(872.94921875,275.87109375)"/>
<path d="M0 0 C4.33842941 2.76921026 7.27662605 5.89237814 8.9375 10.875 C9.3059431 16.49375724 9.12940228 20.03211379 5.9375 24.875 C1.23225068 29.22735562 -2.53373698 30.22497574 -8.77734375 30.1640625 C-12.28352937 29.720545 -14.39133918 28.10096735 -17.0625 25.875 C-17.64 25.42125 -18.2175 24.9675 -18.8125 24.5 C-21.23472946 21.3511017 -21.91215672 17.86297011 -22.5 14 C-21.86500414 9.46431532 -20.08485624 6.29790948 -17.0625 2.875 C-11.59770752 -1.14223964 -6.47463299 -2.37843661 0 0 Z " fill="#EBEDEE" transform="translate(515.0625,925.125)"/>
<path d="M0 0 C3.04660388 2.10183822 4.86334999 3.73540355 6.125 7.25 C6.79896904 12.43799427 6.73918948 16.89878315 4.5625 21.6875 C0.38019597 26.08428116 -3.3368093 28.43189854 -9.375 28.8125 C-15.19893246 28.54416182 -18.68860806 25.59072549 -22.53515625 21.47265625 C-25.29242671 16.89864198 -24.64759868 11.3715816 -23.875 6.25 C-21.89436752 2.30193925 -19.23071274 0.07056297 -15.5 -2.1875 C-9.1414637 -3.55004349 -5.49798231 -3.50032314 0 0 Z " fill="#EBEEEF" transform="translate(430.875,883.75)"/>
<path d="M0 0 C4.65702344 2.45552145 8.31667974 4.95003921 10 10 C10.49923837 15.21335806 10.62614705 19.62247649 8.4375 24.4375 C4.49682556 28.58026031 1.16089653 30.73462674 -4.5625 31.4375 C-10.7711008 30.64731444 -14.96198463 27.96257646 -18.8671875 23.16796875 C-21.03067116 19.02750864 -20.72003682 14.52100044 -20 10 C-18.96875 7.66796875 -18.96875 7.66796875 -18 6 C-17.34 6 -16.68 6 -16 6 C-15.67 5.01 -15.34 4.02 -15 3 C-10.6070656 -0.82610416 -5.53010979 -0.8153367 0 0 Z " fill="#B6E2E9" transform="translate(566,95)"/>
<path d="M0 0 C4.04031401 2.10016322 7.10682753 4.54859474 9.5 8.4375 C10.64344378 14.29764939 10.38920573 18.39876673 7.21484375 23.42578125 C4.9609293 26.34644853 2.2773479 28.36132605 -1 30 C-6.3286313 30.66200918 -10.94242742 30.39558282 -15.4921875 27.390625 C-19.39954997 23.78694355 -21.18844357 19.12120827 -21.5 13.875 C-20.77278826 8.23910905 -18.57756572 5.38976028 -14.375 1.6875 C-9.55627285 -1.73633245 -5.66614606 -1.34632917 0 0 Z " fill="#B6E2E9" transform="translate(605,882)"/>
<path d="M0 0 C3.30421739 2.80901168 4.24320643 6.35858036 4.82421875 10.52734375 C5.11534226 15.93132389 4.19398942 19.11837628 0.51171875 23.28515625 C-3.84107348 27.22339684 -7.40250221 27.91044352 -13.0859375 27.6796875 C-17.79466539 26.90638422 -21.49876253 23.90404733 -24.48828125 20.28515625 C-25.50530242 17.23409275 -25.65410208 15.04316564 -25.67578125 11.84765625 C-25.68996094 10.90019531 -25.70414063 9.95273437 -25.71875 8.9765625 C-25.48442643 6.24013981 -24.88529508 4.62087502 -23.48828125 2.28515625 C-22.82828125 2.28515625 -22.16828125 2.28515625 -21.48828125 2.28515625 C-21.48828125 1.62515625 -21.48828125 0.96515625 -21.48828125 0.28515625 C-15.21335089 -5.52496445 -6.86262785 -4.30263634 0 0 Z " fill="#EBEEEF" transform="translate(238.48828125,614.71484375)"/>
<path d="M0 0 C4.4589411 2.77699703 7.03395998 4.64748167 8.55859375 9.828125 C9.23023988 14.75613321 9.10482551 18.69364365 6.93359375 23.203125 C3.16243829 27.3712442 -0.04405188 30.01543581 -5.75390625 30.453125 C-11.22475191 30.20276427 -15.56583228 27.60537574 -19.44140625 23.828125 C-21.93444821 18.9452562 -22.25474092 14.20284173 -21.44140625 8.828125 C-19.67471517 4.75639491 -17.25437657 2.38817122 -13.62890625 -0.109375 C-8.55757753 -1.79981791 -4.8271564 -2.31703507 0 0 Z " fill="#B6E2E8" transform="translate(688.44140625,802.171875)"/>
<path d="M0 0 C4.22358087 4.1205667 6.19084486 8.18747912 7.125 14 C6.22021845 19.62975187 3.55889517 23.62103984 -0.5625 27.5 C-5.9577481 29.37660803 -11.61427644 29.86607592 -16.859375 27.328125 C-20.64300234 24.64920637 -23.58169136 22.20694753 -24.4375 17.5 C-25.0297409 13.16183537 -25.44412034 9.28446333 -23.234375 5.3671875 C-17.10328246 -2.03347471 -8.96920827 -3.91383634 0 0 Z " fill="#B6E2E9" transform="translate(839.4375,498.5)"/>
<path d="M0 0 C4.67279832 2.12468661 8.81908942 4.74862571 11.0625 9.5 C13.03222283 16.8536319 13.03222283 16.8536319 11.015625 21.046875 C8.44573425 25.39348035 6.04715598 28.84418222 1.1875 30.6875 C-3.56713249 31.36673321 -6.85307458 31.60719581 -11.1875 29.3125 C-14.94730407 26.22110554 -18.53063595 22.86952112 -19.34375 17.8984375 C-19.67068468 12.61844241 -19.25743687 9.59200968 -15.75 5.5 C-11.22001933 0.77643042 -6.61937469 -1.312262 0 0 Z " fill="#EBEEEF" transform="translate(269,165)"/>
<path d="M0 0 C4.37885053 2.89004135 5.91235851 6.01248641 7.125 11.0625 C7.43572006 15.79321297 6.55284968 19.20680063 4.4375 23.4375 C1.2271885 27.08163738 -1.40714403 28.73693594 -6.2734375 29.37890625 C-11.97835366 29.6444504 -15.49593263 29.02451333 -19.875 25.0625 C-23.5305215 20.92598883 -24.52958484 17.68577977 -24.2578125 12.3046875 C-23.39954895 7.2777153 -20.98776825 4.0957848 -17.25 0.625 C-11.38339039 -2.09102297 -6.17355323 -1.49360159 0 0 Z " fill="#B7E2E9" transform="translate(801.875,612.9375)"/>
<path d="M0 0 C4.40212345 1.29236652 7.18799517 3.76101045 9.5 7.6875 C11.48292369 12.27728458 11.367548 16.23563923 10 21 C8.18671656 24.62656688 6.66339262 26.52614813 3.375 28.875 C-2.00287028 30.66762343 -7.12274013 31.43385043 -12.3515625 28.828125 C-16.15713092 26.14346946 -19.11891032 23.73585705 -20 19 C-20.54590532 14.26295061 -20.50783074 10.99685293 -18.3125 6.6875 C-12.64267453 0.09824337 -8.62546156 -1.18801192 0 0 Z " fill="#B6E2E9" transform="translate(866,181)"/>
<path d="M0 0 C4.27336023 1.62995756 7.67672654 3.99880681 10 8 C11.44932983 12.34798948 11.51669065 16.45595345 11 21 C8.38679161 26.13308791 5.46062759 29.1797908 0 31 C-5.92288496 31.60232728 -9.40035826 30.92322543 -14.30078125 27.4765625 C-17.50266767 24.69423361 -18.75531631 21.97494694 -19.2734375 17.79296875 C-19.47860778 13.03459654 -19.14330897 9.77197077 -16 6 C-10.90078501 1.21353686 -7.12831529 -0.93929064 0 0 Z " fill="#B6E3E9" transform="translate(760,165)"/>
<path d="M0 0 C3.86094422 2.00715753 6.16467462 4.65621569 8.4375 8.3125 C9.58050411 13.77351962 9.87043481 18.22565211 7.375 23.3125 C3.20623788 28.02978345 -0.04811799 30.24120542 -6.375 30.6875 C-11.92298889 30.51317794 -14.67525787 28.55882587 -18.5390625 24.7265625 C-21.21213429 21.56747766 -21.18974807 19.25952651 -21.25 15.1875 C-21.27578125 14.14980469 -21.3015625 13.11210938 -21.328125 12.04296875 C-20.82594424 7.38584001 -18.90505062 4.85863777 -15.5625 1.6875 C-10.35528693 -0.77907461 -5.65772094 -1.00733184 0 0 Z " fill="#EBEDEF" transform="translate(281,710)"/>
<path d="M0 0 C3.94235572 2.60378843 5.8191132 6.04667017 7.1875 10.5 C7.964223 14.77598025 7.53317781 17.83425015 5.5 21.75 C2.3506179 25.49521115 -0.01109732 28.19679361 -4.96875 29.03125 C-6.0721875 29.0209375 -7.175625 29.010625 -8.3125 29 C-9.4159375 29.0103125 -10.519375 29.020625 -11.65625 29.03125 C-16.27365979 28.25406221 -18.6516629 25.90958791 -21.5625 22.375 C-23.40059527 18.14738087 -24.06402037 14.10874094 -23.8125 9.5 C-19.05262216 -0.01975569 -10.17582097 -4.98900942 0 0 Z " fill="#ECEEEF" transform="translate(375.8125,138.5)"/>
<path d="M0 0 C0 0.66 0 1.32 0 2 C1.32 2.66 2.64 3.32 4 4 C4 5.32 4 6.64 4 8 C4.66 8 5.32 8 6 8 C7.61355667 11.22711335 7.44922272 14.50112448 7 18 C5.6020296 21.97023592 3.47139179 24.55160293 0.4375 27.4375 C-4.45845134 29.66293243 -8.71102007 29.87509973 -14 29 C-18.48578758 27.16674866 -20.57422063 24.75541501 -22.9375 20.5625 C-24.92221267 13.90787515 -23.90846451 10.05930106 -21 4 C-20.34 4 -19.68 4 -19 4 C-18.67 3.01 -18.34 2.02 -18 1 C-12.65181108 -2.17548717 -5.8071497 -1.64601749 0 0 Z " fill="#B6E2E9" transform="translate(755,711)"/>
<path d="M0 0 C6.33088235 5.27573529 6.33088235 5.27573529 6.8984375 10.89453125 C7.20645242 20.31267975 7.20645242 20.31267975 4.4375 23.75 C-0.19548801 27.76525628 -3.00911262 29.74079477 -9.38671875 29.4765625 C-14.50531435 28.73240518 -18.05872436 25.99507573 -21.375 22.1875 C-23.7111314 17.51523721 -22.8878209 11.25808867 -22.375 6.1875 C-20.82443723 2.58453257 -18.46041677 0.85081025 -15.125 -1.1875 C-9.56462635 -2.45122128 -5.105694 -2.74194678 0 0 Z " fill="#ECEEEF" transform="translate(347.375,802.8125)"/>
<path d="M0 0 C3.65447546 1.8343476 6.31941851 3.62737942 8.16015625 7.33984375 C9.61563829 11.9499985 9.8895785 16.24009116 9 21 C6.4733267 25.24940509 3.73497706 28.42167431 -1 30 C-5.9388636 30.51853818 -9.85354834 30.55199525 -14.375 28.375 C-17.95907713 25.13226355 -20.59535241 22.53524104 -21.3828125 17.6015625 C-21.63883919 11.91777006 -20.93626932 8.35061345 -17 4 C-11.30836799 -0.29776295 -7.01377732 -1.87547892 0 0 Z " fill="#B7E3E9" transform="translate(858,386)"/>
<path d="M0 0 C3.82188442 1.51381923 5.6291821 3.64815401 8 7 C9.56214918 11.68644753 9.83607081 16.12292026 9 21 C6.73224174 24.7459567 3.95656611 28.02171695 0 30 C-1.97637414 30.12227926 -3.9573831 30.17549929 -5.9375 30.1875 C-7.52884766 30.20876953 -7.52884766 30.20876953 -9.15234375 30.23046875 C-12 30 -12 30 -15 28 C-15 27.34 -15 26.68 -15 26 C-15.61875 25.814375 -16.2375 25.62875 -16.875 25.4375 C-20.14222247 23.22732009 -20.25594022 20.7823039 -21 17 C-21.44521074 12.77049799 -21.31575828 10.61937201 -19.375 6.8125 C-13.72080556 0.11674342 -8.50048688 -1.10429286 0 0 Z " fill="#EBEEF0" transform="translate(197,497)"/>
<path d="M0 0 C4.20585804 2.70376588 6.24234336 4.79502266 7.625 9.6875 C8.20925242 14.40512027 8.12104241 17.71378711 5.9375 22 C5.174375 22.886875 4.41125 23.77375 3.625 24.6875 C2.965 25.47125 2.305 26.255 1.625 27.0625 C-3.2021549 29.67720891 -8.01337357 29.40674257 -13.375 28.6875 C-17.99639843 26.49841653 -20.08954146 24.18740001 -22.375 19.6875 C-23.22628275 14.84376717 -23.52794347 9.85160101 -21.16796875 5.421875 C-15.41220494 -1.51418468 -8.45756087 -3.28905145 0 0 Z " fill="#B7E3EA" transform="translate(661.375,138.3125)"/>
<path d="M0 0 C5.57552338 -0.28838914 9.17362578 -0.178344 14 3 C14.33 3.99 14.66 4.98 15 6 C15.99 6.33 16.98 6.66 18 7 C19.92962772 12.78888315 19.96580594 18.87522693 17.4375 24.4375 C13.4965066 28.58059562 9.7686203 31.16551891 3.9375 31.5 C-1.71635336 30.78205037 -4.55129536 28.60532136 -8.3125 24.4375 C-11.19083161 20.2799099 -11.25213567 16.95866816 -11 12 C-10 8.5625 -10 8.5625 -9 6 C-8.34 6 -7.68 6 -7 6 C-7 5.34 -7 4.68 -7 4 C-4 2 -4 2 -1 2 C-0.67 1.34 -0.34 0.68 0 0 Z " fill="#EBEEEF" transform="translate(456,95)"/>
<path d="M0 0 C3.76108254 1.58065429 6.93468323 3.3725291 9.19921875 6.83203125 C11.07529302 11.91115916 10.85072108 18.00080545 8.75 22.9375 C3.02725451 29.68216433 3.02725451 29.68216433 -2.26953125 30.23828125 C-8.07287413 30.40765685 -11.45634729 29.98954872 -16 26 C-19.74976591 21.733025 -20.35804062 17.80450272 -20.27734375 12.28125 C-19.68782613 7.43225997 -16.8548648 4.77344911 -13.375 1.625 C-8.77278965 -0.59087906 -5.01819831 -0.9032757 0 0 Z " fill="#ECEEEF" transform="translate(174,386)"/>
<path d="M0 0 C4.10534846 1.62489559 7.15531856 3.3301512 9.18359375 7.33984375 C10.59168355 11.92792582 10.78555572 16.26634957 10 21 C7.66215193 25.27340411 4.53013421 28.18963038 0 30 C-4.88155349 30.69276172 -8.88243347 30.51739191 -13.375 28.4375 C-17.92448627 24.21297704 -20.20140336 20.54430776 -20.4375 14.375 C-20.14849018 8.8744905 -18.11324491 6.25240053 -14.5 2.1875 C-10.17497911 -1.20150891 -5.20661476 -0.92054716 0 0 Z " fill="#EBEEF0" transform="translate(165,181)"/>
<path d="M0 0 C3.46726083 4.37176366 4.52047215 8.05526178 4.484375 13.578125 C3.58219275 18.08903624 0.42383946 21.09808728 -3 24 C-7.41381416 26.71962287 -11.96282848 26.92566705 -17 26 C-19.73431069 24.33521615 -21.86541975 22.37489723 -24 20 C-23.67 19.34 -23.34 18.68 -23 18 C-22.34 18.33 -21.68 18.66 -21 19 C-13.80406948 19.78573621 -13.80406948 19.78573621 -6.9453125 18.0234375 C-3.32227598 15.08535316 -1.31874003 11.98460771 -0.5859375 7.421875 C-0.51632812 6.54015625 -0.44671875 5.6584375 -0.375 4.75 C-0.30023437 3.85796875 -0.22546875 2.9659375 -0.1484375 2.046875 C-0.09945312 1.37140625 -0.05046875 0.6959375 0 0 Z " fill="#374C58" transform="translate(669,147)"/>
<path d="M0 0 C3.07666532 2.94289726 4.19182121 4.85167803 4.4375 9.125 C4.38265272 14.79255199 1.86773647 18.05823986 -2 22 C-5.68691821 25.18868602 -9.05515401 25.51281543 -13.78515625 25.36328125 C-17.18591448 24.80548493 -19.36150564 23.135924 -22 21 C-22.99 20.34 -23.98 19.68 -25 19 C-25 18.34 -25 17.68 -25 17 C-23.5459375 17.5259375 -23.5459375 17.5259375 -22.0625 18.0625 C-17.02974968 19.46841001 -11.83657345 19.56313303 -7.1640625 16.98828125 C-2.32218709 13.24468489 -1.14029175 9.48330949 -0.375 3.6875 C-0.25125 2.470625 -0.1275 1.25375 0 0 Z " fill="#39545E" transform="translate(880,286)"/>
<path d="M0 0 C3.30218401 3.09579751 4.33828546 5.45480271 4.5 9.875 C4.21243563 16.31644185 2.15068368 19.95422772 -2.5625 24.4375 C-7.46030173 26.66377352 -11.72052084 27.15418797 -17 26 C-20.10943976 24.03280342 -22.55900774 21.74174488 -25 19 C-24.34 18.67 -23.68 18.34 -23 18 C-21.66163355 18.65650397 -20.32894765 19.32463316 -19 20 C-14.13962109 20.85348613 -10.19092451 20.55698319 -6.0625 17.75 C-2.60347751 15.10053597 -1.22415308 12.51409061 -0.5859375 8.203125 C-0.51632812 7.22859375 -0.44671875 6.2540625 -0.375 5.25 C-0.30023437 4.26515625 -0.22546875 3.2803125 -0.1484375 2.265625 C-0.09945312 1.51796875 -0.05046875 0.7703125 0 0 Z " fill="#374F5A" transform="translate(697,811)"/>
<path d="M0 0 C3.54204372 3.31352477 4.8302407 5.26845509 5.3125 10.1875 C4.81872666 16.2115347 2.76074269 20.23925731 -1.5 24.5 C-6.68616483 26.72264207 -11.45180909 27.0222301 -17 26 C-19.81507155 24.3684845 -21.90541221 22.47810387 -24 20 C-23.67 19.34 -23.34 18.68 -23 18 C-21.515 18.99 -21.515 18.99 -20 20 C-14.77638318 20.70522927 -10.30215763 20.60457319 -5.5 18.375 C-1.96683698 15.01849513 -0.15819284 12.3482848 0.17578125 7.390625 C0.18625577 4.91863869 0.13169983 2.46815239 0 0 Z " fill="#384F59" transform="translate(761,719)"/>
<path d="M0 0 C2.64005083 2.18956597 3.88265302 3.38047699 4.53125 6.8046875 C4.42275994 17.46383596 4.42275994 17.46383596 0 22 C-4.60785918 25.43330684 -8.09278797 26.66578829 -13.8515625 26.390625 C-17.28289758 25.76674589 -19.41185906 24.27251399 -22 22 C-23.375 19.75 -23.375 19.75 -24 18 C-23.45214844 18.15984375 -22.90429688 18.3196875 -22.33984375 18.484375 C-17.0074031 19.65947044 -11.2108436 19.79966683 -6.0625 17.9375 C-2.51945866 14.60918844 -0.23938042 11.39000453 0.24609375 6.54296875 C0.24955285 4.34643876 0.17866766 2.18867884 0 0 Z " fill="#3B535E" transform="translate(845,507)"/>
<path d="M0 0 C2.58177166 1.29088583 2.92634438 2.35288356 4 5 C4.77341203 9.37275264 4.84145619 13.34987162 2.796875 17.359375 C0.26740058 20.85975879 -1.88564597 23.44769793 -6 25 C-11.32131939 25.69128923 -15.71412636 25.63165723 -20.5625 23.25 C-22.78522658 21.19825238 -23.99256874 19.82080752 -25 17 C-24.38125 17.33 -23.7625 17.66 -23.125 18 C-17.33648739 19.85232403 -12.02159794 20.02917714 -6.5625 17.25 C-3.33811268 14.41883064 -1.2761639 12.50941491 -0.48828125 8.203125 C-0.43027344 7.22859375 -0.37226563 6.2540625 -0.3125 5.25 C-0.21388672 3.77273437 -0.21388672 3.77273437 -0.11328125 2.265625 C-0.07589844 1.51796875 -0.03851563 0.7703125 0 0 Z " fill="#407D88" transform="translate(175,191)"/>
<path d="M0 0 C3.51919758 3.36618899 4.18591613 5.37318982 4.3125 10.25 C4.23920826 15.34710725 3.67704532 18.23102855 0 22 C-4.1707805 25.15211061 -7.89384977 26.3303601 -13.125 26.0625 C-18.07446913 25.34452145 -20.55132201 23.53943267 -24 20 C-23.67 19.34 -23.34 18.68 -23 18 C-22.319375 18.33 -21.63875 18.66 -20.9375 19 C-16.63348852 20.4651954 -13.09458106 20.95242726 -8.84375 19.01953125 C-5.08160843 16.80450224 -2.55596744 15.20938051 -1 11 C-0.54724722 8.18503259 -0.54724722 8.18503259 -0.375 5.25 C-0.30023437 4.26515625 -0.22546875 3.2803125 -0.1484375 2.265625 C-0.09945312 1.51796875 -0.05046875 0.7703125 0 0 Z " fill="#374B59" transform="translate(576,105)"/>
<path d="M0 0 C0.66 0 1.32 0 2 0 C4.39173286 4.88312125 5.77856965 8.45269125 5 14 C3.23507546 17.9293176 1.00771427 21.05156304 -2.125 24 C-6.7359461 25.60380734 -11.18014931 25.65018514 -16 25 C-19.91075925 23.01031547 -21.57689098 21.63466354 -24 18 C-23.44054687 18.15984375 -22.88109375 18.3196875 -22.3046875 18.484375 C-17.03192438 19.66404404 -11.79112468 19.53070361 -6.625 18 C-3.00552344 15.24230358 -1.33327887 12.32932506 0 8 C0.29152786 5.23048536 0.19969713 2.79575975 0 0 Z " fill="#38505B" transform="translate(876,191)"/>
<path d="M0 0 C3.26639568 3.12437847 4.20610427 5.09525331 4.4375 9.625 C4.40034591 14.75226504 2.88310152 17.48749105 -0.296875 21.40625 C-4.35787626 25.20645302 -8.14889789 25.42727039 -13.5234375 25.32421875 C-17.14175926 24.85052678 -19.28772094 23.37324418 -22 21 C-22.66 20.01 -23.32 19.02 -24 18 C-23.14341797 18.23783203 -23.14341797 18.23783203 -22.26953125 18.48046875 C-17.07498873 19.66958089 -11.95024821 19.84396989 -7.125 17.375 C-3.03114837 14.26367276 -1.44601143 11.69814834 -0.60546875 6.61328125 C-0.34591538 4.40880797 -0.14273175 2.214803 0 0 Z " fill="#394F56" transform="translate(524,935)"/>
<path d="M0 0 C3.20283723 3.07965118 4.91253288 5.50948883 5.07421875 10.11328125 C4.73840946 15.82203919 3.34051145 19.03692433 -1 23 C-5.7277279 25.6760724 -10.59225601 27.31871262 -16 26 C-18.92605224 24.27437945 -21.47033068 22.26055556 -24 20 C-23.67 19.34 -23.34 18.68 -23 18 C-22.43023438 18.32226562 -21.86046875 18.64453125 -21.2734375 18.9765625 C-17.54501459 20.65499343 -14.00892627 20.55079161 -10 20 C-5.59814243 17.92365209 -2.96411995 15.35793461 -0.6796875 11.015625 C0.54259571 7.39092307 0.30781934 3.7707869 0 0 Z " fill="#384E59" transform="translate(614,891)"/>
<path d="M0 0 C3.94463583 3.77312992 3.94463583 3.77312992 4.09765625 7.1640625 C4.08605469 7.97617187 4.07445312 8.78828125 4.0625 9.625 C4.05347656 10.44226563 4.04445313 11.25953125 4.03515625 12.1015625 C4.02355469 12.72804688 4.01195312 13.35453125 4 14 C3.34 14 2.68 14 2 14 C1.9071875 14.8353125 1.9071875 14.8353125 1.8125 15.6875 C0.64834483 19.00086472 -1.39458444 20.70475296 -4 23 C-8.35836475 24.45278825 -12.44983143 24.64609644 -17 24 C-19.76044495 22.60514619 -21.64055622 21.05169024 -24 19 C-23.67 18.34 -23.34 17.68 -23 17 C-22.34 17.33 -21.68 17.66 -21 18 C-15.14966997 18.54715317 -9.83351047 18.68267464 -5 15 C-1.72158342 10.31955961 -0.46901069 5.62812825 0 0 Z " fill="#354953" transform="translate(809,623)"/>
<path d="M0 0 C3.05496644 2.92214182 3.92474867 4.27257048 4.375 8.625 C4.31003952 13.71975767 2.18388906 17.14208429 -1 21 C-4.88478314 24.65626649 -9.22796141 24.50003411 -14.3359375 24.35546875 C-18.08369069 23.85540198 -20.24202151 22.5458263 -23 20 C-24.375 17.75 -24.375 17.75 -25 16 C-24.38125 16.33 -23.7625 16.66 -23.125 17 C-17.35239123 18.84723481 -12.04140643 19.00214497 -6.5625 16.3125 C-1.15044175 11.42844744 -0.44259101 7.00514732 0 0 Z " fill="#377887" transform="translate(243,623)"/>
<path d="M0 0 C0.66 0 1.32 0 2 0 C3.5638537 4.8870428 3.5638537 10.1129572 2 15 C1.34 15 0.68 15 0 15 C-0.38091797 15.92039062 -0.38091797 15.92039062 -0.76953125 16.859375 C-2.85160142 20.48151612 -6.18015065 21.62234942 -10 23 C-13.75385557 23.67033135 -15.8737178 23.63365789 -19.21484375 21.75390625 C-21.32508957 20.26672071 -23.23396407 18.8853007 -25 17 C-25 16.01 -25 15.02 -25 14 C-23.515 14.99 -23.515 14.99 -22 16 C-17.16037096 16.73585003 -12.14566956 17.13550898 -7.7265625 14.796875 C-2.6503535 10.55599153 -0.89071661 6.53192181 0 0 Z " fill="#427D8B" transform="translate(207,510)"/>
<path d="M0 0 C1.94734511 1.62278759 2.90721805 2.52244586 3.3984375 5.05078125 C3.34611409 10.09998992 2.90701351 13.68960065 0 18 C-5.17546189 22.67053878 -8.39134469 23.34790051 -15.23046875 23.28515625 C-19.06724783 22.89011412 -21.18865682 21.59508601 -24 19 C-25.375 16.75 -25.375 16.75 -26 15 C-25.38125 15.33 -24.7625 15.66 -24.125 16 C-18.76149773 17.71632073 -13.25420504 18.007198 -8.0625 15.6875 C-4.07824305 12.4276534 -2.5776248 10.43324323 -1.3125 5.3125 C-1.06113281 4.31863281 -0.80976563 3.32476562 -0.55078125 2.30078125 C-0.36902344 1.54152344 -0.18726563 0.78226562 0 0 Z " fill="#3B7A89" transform="translate(185,398)"/>
<path d="M0 0 C3.05496644 2.92214182 3.92474867 4.27257048 4.375 8.625 C4.31003952 13.71975767 2.18388906 17.14208429 -1 21 C-4.88478314 24.65626649 -9.22796141 24.50003411 -14.3359375 24.35546875 C-18.08369069 23.85540198 -20.24202151 22.5458263 -23 20 C-24.375 17.75 -24.375 17.75 -25 16 C-24.45085937 16.32226562 -23.90171875 16.64453125 -23.3359375 16.9765625 C-19.06076453 18.84963159 -14.57093001 18.53658744 -10 18 C-5.53439271 15.84693934 -2.93312482 13.57845352 -1 9 C-0.48611867 6.00739696 -0.19138786 3.02920781 0 0 Z " fill="#377984" transform="translate(290,721)"/>
<path d="M0 0 C2.21573665 1.75730837 2.9402273 2.65698012 3.43359375 5.48828125 C3.44191266 11.50285263 3.2026875 15.33034722 -1 20 C-5.16991099 23.66446723 -9.14853313 24.44248191 -14.5703125 24.43359375 C-18.88889068 23.66291501 -21.8354719 20.89722464 -25 18 C-24.67 17.34 -24.34 16.68 -24 16 C-23.505 16.33 -23.01 16.66 -22.5 17 C-17.79069379 18.88372248 -13.5252538 18.47851099 -8.8125 17 C-4.54506397 13.96537882 -1.77652734 10.03759225 -0.46875 4.921875 C-0.1351525 2.82739792 -0.1351525 2.82739792 0 0 Z " fill="#374F5B" transform="translate(772,177)"/>
<path d="M0 0 C2.25682026 1.77449192 2.9470039 2.63187653 3.36328125 5.5234375 C3.34652344 6.46445312 3.32976563 7.40546875 3.3125 8.375 C3.30863281 9.31085938 3.30476562 10.24671875 3.30078125 11.2109375 C2.89359558 14.98665919 2.14773015 17.83501075 -0.55859375 20.58203125 C-5.42935532 23.77182313 -9.53572578 24.80975133 -15.3671875 24.57421875 C-19.62827116 23.64487261 -22.18982928 21.22258485 -25 18 C-24.34 17.67 -23.68 17.34 -23 17 C-22.34 17.33 -21.68 17.66 -21 18 C-16.48070346 18.41593526 -12.35212967 18.55848834 -8.125 16.8125 C-2.30558918 11.84888489 -1.08666604 7.36359226 0 0 Z " fill="#364D59" transform="translate(868,397)"/>
<path d="M0 0 C3.09225158 2.95780586 4.18042216 4.8293201 4.375 9.125 C4.29785973 14.43910747 2.6091066 18.11747624 -1 22 C-6.1025844 25.08080567 -10.20481082 25.64390991 -16 25 C-19.490971 23.08984606 -22.33837806 20.95735771 -25 18 C-24.67 17.34 -24.34 16.68 -24 16 C-23.319375 16.495 -22.63875 16.99 -21.9375 17.5 C-17.13973466 19.94992273 -13.46992772 19.4054973 -8.375 18 C-4.0328333 15.42686418 -1.84253573 12.68933642 0 8 C0.37339001 5.1804267 0.25530717 2.85944026 0 0 Z " fill="#3E7B88" transform="translate(280,176)"/>
<path d="M0 0 C0.99 0.66 1.98 1.32 3 2 C3.82240808 6.93444846 3.42382446 11.70498081 1.875 16.4375 C-1.02384894 20.39926021 -4.38046747 22.46015582 -9 24 C-14.71592544 24.53923825 -17.55802329 23.63434458 -22 20 C-23.875 17.75 -23.875 17.75 -25 16 C-24.01 16.33 -23.02 16.66 -22 17 C-13.16377757 18.03214611 -13.16377757 18.03214611 -5.3125 14.75 C-1.17226142 9.82647304 -0.63126779 6.31267793 0 0 Z " fill="#417E8B" transform="translate(383,149)"/>
<path d="M0 0 C2.72302618 2.60956676 3.26435984 4.73002128 3.375 8.375 C3.17174435 13.33443785 2.09374355 16.80156927 -1.40625 20.4765625 C-5.56287318 23.98616415 -9.24864841 24.71240077 -14.62890625 24.42578125 C-18.17611304 23.78880342 -20.34440825 22.39003257 -23 20 C-24.375 17.75 -24.375 17.75 -25 16 C-24.175 16.33 -23.35 16.66 -22.5 17 C-17.7928986 18.34488611 -13.56682455 19.19137474 -9.0390625 17.08984375 C-4.93764092 14.39882664 -2.68833913 11.6898309 -1 7 C-0.2863276 3.26228166 -0.2863276 3.26228166 0 0 Z " fill="#3D7B87" transform="translate(355,813)"/>
<path d="M0 0 C2.21573665 1.75730837 2.9402273 2.65698012 3.43359375 5.48828125 C3.44186075 11.46532238 3.31518539 15.46352306 -1 20 C-5.01554089 23.24293049 -8.82946128 24.67271417 -14.0078125 24.390625 C-17.64300193 23.67784276 -19.98793318 22.16868811 -23 20 C-24.4375 17.75 -24.4375 17.75 -25 16 C-23.5459375 16.5259375 -23.5459375 16.5259375 -22.0625 17.0625 C-17.02974968 18.46841001 -11.83657345 18.56313303 -7.1640625 15.98828125 C-2.43088413 12.32872627 -1.30937295 8.88717498 -0.375 3.1875 C-0.25125 2.135625 -0.1275 1.08375 0 0 Z " fill="#3C7986" transform="translate(172,287)"/>
<path d="M0 0 C2.68553371 2.57363648 3.28392557 4.71271545 3.4375 8.3125 C3.25137221 13.02773722 2.12404502 16.43230362 -1 20 C-5.15812564 23.64105302 -9.39485978 24.64570066 -14.85546875 24.39453125 C-19.51010156 23.53821447 -22.91427322 20.42858532 -26 17 C-25.67 16.34 -25.34 15.68 -25 15 C-24.34 15.495 -23.68 15.99 -23 16.5 C-19.21873893 18.39063054 -16.10088268 18.79906905 -12 18 C-7.64269429 16.17926869 -4.70783451 14.05033508 -2.0625 10.125 C-0.9120308 6.74126706 -0.35515763 3.5515763 0 0 Z " fill="#3D7985" transform="translate(476,107)"/>
<path d="M0 0 C0.66 0.33 1.32 0.66 2 1 C3.55417619 5.66252858 3.54448802 9.48753327 1.875 14.125 C-0.69321077 18.06292318 -3.74225165 20.87112583 -8 23 C-13.60727817 23.37381854 -17.16772538 23.18490827 -22 20 C-24.375 17.3125 -24.375 17.3125 -26 15 C-25.360625 15.33 -24.72125 15.66 -24.0625 16 C-18.67706277 17.75851012 -13.34911211 18.02385618 -8.1875 15.4375 C-3.44886925 12.32605568 -1.44933647 8.0594588 -0.25 2.5625 C-0.1675 1.716875 -0.085 0.87125 0 0 Z " fill="#3C7886" transform="translate(438,894)"/>
<path d="M0 0 C0.99 0.33 1.98 0.66 3 1 C5.57265818 1.07029121 8.11641431 1.09370832 10.6875 1.0625 C11.38939453 1.05798828 12.09128906 1.05347656 12.81445312 1.04882812 C14.54300538 1.03706927 16.27151365 1.01913454 18 1 C18.33 1.66 18.66 2.32 19 3 C21.02463255 3.65213292 21.02463255 3.65213292 23 4 C18.60825823 7.69830886 15.24191955 8.74044035 9.48046875 8.53125 C5.3732297 7.65158935 2.56044746 5.2726249 0 2 C0 1.34 0 0.68 0 0 Z " fill="#344B57" transform="translate(645,165)"/>
<path d="M0 0 C2 2 2 2 2.22705078 5.80712891 C2.22673346 7.4469742 2.21539681 9.08684017 2.1953125 10.7265625 C2.1924826 11.58937836 2.18965271 12.45219421 2.18673706 13.34115601 C2.17552333 16.1025772 2.15041684 18.8636765 2.125 21.625 C2.11497173 23.49478699 2.10584562 25.36457905 2.09765625 27.234375 C2.07558012 31.82304109 2.04104234 36.41146593 2 41 C0.68 41 -0.64 41 -2 41 C-2 38.36 -2 35.72 -2 33 C-1.34 33 -0.68 33 0 33 C-0.03552979 32.0713916 -0.07105957 31.1427832 -0.10766602 30.18603516 C-0.23676274 26.74589852 -0.36109484 23.30565875 -0.48217773 19.86523438 C-0.53560003 18.37525558 -0.59092962 16.88534391 -0.64819336 15.39550781 C-0.73009836 13.25600663 -0.80517709 11.11635907 -0.87890625 8.9765625 C-0.9260376 7.68830566 -0.97316895 6.40004883 -1.02172852 5.07275391 C-1 2 -1 2 0 0 Z " fill="#7CA6B3" transform="translate(799,247)"/>
<path d="M0 0 C2.52674397 2.41688554 3.9023184 3.83345626 4.203125 7.42578125 C4.35766423 16.94282238 4.35766423 16.94282238 1 21 C0.01 20.34 -0.98 19.68 -2 19 C-2 18.34 -2 17.68 -2 17 C-2.66 16.67 -3.32 16.34 -4 16 C-3.2884375 15.1028125 -3.2884375 15.1028125 -2.5625 14.1875 C-0.31369498 9.59993775 -0.256466 5.04972703 0 0 Z " fill="#3F5562" transform="translate(576,105)"/>
<path d="M0 0 C0.66 0 1.32 0 2 0 C3.5638537 4.8870428 3.5638537 10.1129572 2 15 C0.35 15.33 -1.3 15.66 -3 16 C-3 16.66 -3 17.32 -3 18 C-4.32 18.33 -5.64 18.66 -7 19 C-7 18.01 -7 17.02 -7 16 C-6.3503125 15.38125 -6.3503125 15.38125 -5.6875 14.75 C-1.83760323 10.75751446 -0.65397765 5.36261675 0 0 Z " fill="#417A84" transform="translate(207,510)"/>
<path d="M0 0 C3.94463583 3.77312992 3.94463583 3.77312992 4.09765625 7.1640625 C4.08605469 7.97617187 4.07445312 8.78828125 4.0625 9.625 C4.05347656 10.44226563 4.04445313 11.25953125 4.03515625 12.1015625 C4.02355469 12.72804688 4.01195312 13.35453125 4 14 C3.34 14 2.68 14 2 14 C1.87625 14.61875 1.7525 15.2375 1.625 15.875 C1 18 1 18 -1 20 C-1 17.69 -1 15.38 -1 13 C-1.66 12.67 -2.32 12.34 -3 12 C-2.690625 11.319375 -2.38125 10.63875 -2.0625 9.9375 C-0.86629351 6.63034088 -0.40994603 3.48454122 0 0 Z " fill="#3E5964" transform="translate(809,623)"/>
<path d="M0 0 C3.88498118 3.71606895 3.88498118 3.71606895 4.16796875 6.875 C4.17441406 7.57625 4.18085938 8.2775 4.1875 9 C4.20167969 9.70125 4.21585937 10.4025 4.23046875 11.125 C4 13 4 13 2 15 C2 14.34 2 13.68 2 13 C-1.057952 14.73559438 -3.63379989 16.38472619 -6 19 C-6.66 18.34 -7.32 17.68 -8 17 C-7.21625 16.4225 -6.4325 15.845 -5.625 15.25 C-1.79636233 11.96831056 -0.81223335 9.2053113 -0.375 4.25 C-0.26285156 3.05117188 -0.26285156 3.05117188 -0.1484375 1.828125 C-0.09945313 1.22484375 -0.05046875 0.6215625 0 0 Z " fill="#417C89" transform="translate(290,721)"/>
<path d="M0 0 C0.66 0.33 1.32 0.66 2 1 C-0.0072908 4.0109362 -0.83884224 4.63016497 -4 6 C-3.67 6.66 -3.34 7.32 -3 8 C-7.57989423 8.46733615 -10.24854513 8.17261016 -13.9375 5.5 C-14.948125 4.675 -15.95875 3.85 -17 3 C-16.67 2.34 -16.34 1.68 -16 1 C-15.34 1.33 -14.68 1.66 -14 2 C-12.37834248 2.12148305 -10.75115673 2.17543652 -9.125 2.1875 C-8.26132812 2.20167969 -7.39765625 2.21585938 -6.5078125 2.23046875 C-3.86552012 1.98764126 -2.32862137 1.19455252 0 0 Z " fill="#3A535A" transform="translate(802,639)"/>
<path d="M0 0 C-2.89789936 2.89789936 -5.63669716 2.96781579 -9.64746094 3.0625 C-10.58364258 3.041875 -11.51982422 3.02125 -12.484375 3 C-19.11678835 2.94306941 -25.64644445 3.42306599 -32.25 4 C-33.38824219 4.09539062 -34.52648437 4.19078125 -35.69921875 4.2890625 C-38.46655352 4.52161164 -41.23342165 4.75864653 -44 5 C-43 3 -43 3 -40 2 C-37.75103538 1.78044361 -35.49721793 1.60935898 -33.2421875 1.46484375 C-32.57970001 1.42186661 -31.91721252 1.37888947 -31.23464966 1.33460999 C-29.83103515 1.24449466 -28.42729208 1.15636299 -27.0234375 1.07006836 C-24.90328145 0.93924509 -22.78369074 0.80119454 -20.6640625 0.66210938 C-13.76673347 0.22023875 -6.91261165 -0.11546679 0 0 Z " fill="#467E8B" transform="translate(250,224)"/>
<path d="M0 0 C3.0994029 3.90794279 4.13464242 6.70967334 4.0625 11.6875 C4.05347656 12.49574219 4.04445313 13.30398437 4.03515625 14.13671875 C4.02355469 14.75160156 4.01195312 15.36648437 4 16 C3.34 16.33 2.68 16.66 2 17 C2 15.35 2 13.7 2 12 C1.01 13.485 1.01 13.485 0 15 C-0.99 14.67 -1.98 14.34 -3 14 C-2.68289063 13.44828125 -2.36578125 12.8965625 -2.0390625 12.328125 C-0.87290025 9.71522011 -0.59954289 7.59420998 -0.375 4.75 C-0.30023437 3.85796875 -0.22546875 2.9659375 -0.1484375 2.046875 C-0.09945312 1.37140625 -0.05046875 0.6959375 0 0 Z " fill="#3A5563" transform="translate(669,147)"/>
<path d="M0 0 C3.93103448 3.93103448 3.93103448 3.93103448 4.25 8.875 C4.22382048 12.47468355 3.6189021 14.3810979 1 17 C1 15.35 1 13.7 1 12 C0.01 12.33 -0.98 12.66 -2 13 C-1.34 8.71 -0.68 4.42 0 0 Z " fill="#4C7F8B" transform="translate(243,623)"/>
<path d="M0 0 C0.99 0.66 1.98 1.32 3 2 C3.29296875 4.3828125 3.29296875 4.3828125 3.1875 7.125 C3.16042969 8.03507813 3.13335937 8.94515625 3.10546875 9.8828125 C3.07066406 10.58148438 3.03585937 11.28015625 3 12 C2.34 12 1.68 12 1 12 C0.67 12.99 0.34 13.98 0 15 C-0.66 14.34 -1.32 13.68 -2 13 C-1.7578125 9.9609375 -1.7578125 9.9609375 -1.125 6.375 C-0.92132813 5.18648437 -0.71765625 3.99796875 -0.5078125 2.7734375 C-0.34023438 1.85820312 -0.17265625 0.94296875 0 0 Z " fill="#3A7883" transform="translate(383,149)"/>
<path d="M0 0 C1.41551182 2.83102364 0.48854158 4.20358824 -0.4375 7.1875 C-1.73978741 11.68631106 -2.31040125 15.34398129 -2 20 C-2.66 20 -3.32 20 -4 20 C-4.33 20.66 -4.66 21.32 -5 22 C-5 21.34 -5 20.68 -5 20 C-5.66 20 -6.32 20 -7 20 C-6.72736328 19.19949219 -6.72736328 19.19949219 -6.44921875 18.3828125 C-4.72647905 13.27643533 -3.1353252 8.14887489 -1.6484375 2.96875 C-1 1 -1 1 0 0 Z " fill="#8EB5BF" transform="translate(772,514)"/>
<path d="M0 0 C4.29 0.66 8.58 1.32 13 2 C13 2.33 13 2.66 13 3 C12.195625 3.12375 11.39125 3.2475 10.5625 3.375 C9.2940625 3.684375 9.2940625 3.684375 8 4 C7.67 4.66 7.34 5.32 7 6 C10.3 6.33 13.6 6.66 17 7 C17 7.33 17 7.66 17 8 C8.60236553 8.91241904 8.60236553 8.91241904 4.77734375 6.734375 C3.00828195 5.23775598 1.42817887 3.82542067 0 2 C0 1.34 0 0.68 0 0 Z " fill="#4C6C75" transform="translate(645,165)"/>
<path d="M0 0 C3.11990898 2.78533429 3.53816182 4.84345641 4 9 C2.68 9.99 1.36 10.98 0 12 C-1.03159626 8.90521121 -0.97482862 7.47368607 -0.5625 4.3125 C-0.46066406 3.50425781 -0.35882812 2.69601562 -0.25390625 1.86328125 C-0.17011719 1.24839844 -0.08632813 0.63351562 0 0 Z " fill="#43535E" transform="translate(524,935)"/>
<path d="M0 0 C0.9590625 0.4640625 0.9590625 0.4640625 1.9375 0.9375 C5.92049104 2.31935403 9.81650849 2.6536543 14 3 C13.67 3.66 13.34 4.32 13 5 C10.9375 5.625 10.9375 5.625 9 6 C9 5.34 9 4.68 9 4 C8.34 4 7.68 4 7 4 C7.33 4.99 7.66 5.98 8 7 C4.66272214 5.82744291 2.22562513 4.81131596 0 2 C0 1.34 0 0.68 0 0 Z " fill="#54848F" transform="translate(150,208)"/>
<path d="M0 0 C0.66 0 1.32 0 2 0 C2 1.65 2 3.3 2 5 C0.68 5.33 -0.64 5.66 -2 6 C-2 6.66 -2 7.32 -2 8 C-3.32 8.33 -4.64 8.66 -6 9 C-6 6 -6 6 -3.5625 3.375 C-2.716875 2.59125 -1.87125 1.8075 -1 1 C-0.67 0.67 -0.34 0.34 0 0 Z " fill="#317788" transform="translate(206,520)"/>
<path d="M0 0 C3.74123976 4.2954975 6.34151874 8.99900452 9 14 C8.34 14 7.68 14 7 14 C7 13.34 7 12.68 7 12 C5.68 11.67 4.36 11.34 3 11 C2.71125 9.88625 2.4225 8.7725 2.125 7.625 C1.30758671 3.99708908 1.30758671 3.99708908 -1 2 C-0.67 1.34 -0.34 0.68 0 0 Z " fill="#9ABBC0" transform="translate(309,711)"/>
<path d="M0 0 C0.680625 0.309375 1.36125 0.61875 2.0625 0.9375 C5.36965912 2.13370649 8.51545878 2.59005397 12 3 C10.68 3.33 9.36 3.66 8 4 C8 4.99 8 5.98 8 7 C4.66272214 5.82744291 2.22562513 4.81131596 0 2 C0 1.34 0 0.68 0 0 Z " fill="#4F828F" transform="translate(218,639)"/>
<path d="M0 0 C0.56203125 0.31710937 1.1240625 0.63421875 1.703125 0.9609375 C4.15196317 2.06874525 6.08387855 2.38975399 8.75 2.625 C9.54921875 2.69976563 10.3484375 2.77453125 11.171875 2.8515625 C11.77515625 2.90054688 12.3784375 2.94953125 13 3 C13 3.33 13 3.66 13 4 C11.35 4 9.7 4 8 4 C7.67 4.99 7.34 5.98 7 7 C3.42895561 5.12050295 1.45255699 3.82946843 0 0 Z " fill="#5D888F" transform="translate(181,524)"/>
<path d="M0 0 C3.63 0.66 7.26 1.32 11 2 C10.34 3.32 9.68 4.64 9 6 C4.58763974 6 3.21615077 3.9302707 0 1 C0 0.67 0 0.34 0 0 Z " fill="#425B68" transform="translate(843,414)"/>
<path d="M0 0 C0.45375 0.474375 0.9075 0.94875 1.375 1.4375 C2.93258204 3.09027808 2.93258204 3.09027808 5 4 C3.515 6.475 3.515 6.475 2 9 C1.67 8.01 1.34 7.02 1 6 C-0.65 6 -2.3 6 -4 6 C-2.68 4.02 -1.36 2.04 0 0 Z " fill="#45818D" transform="translate(170,297)"/>
<path d="M0 0 C5.94 0.99 5.94 0.99 12 2 C10.02 2.99 10.02 2.99 8 4 C8.99 5.485 8.99 5.485 10 7 C5.04303419 5.76075855 2.88341534 4.21422242 0 0 Z " fill="#455155" transform="translate(500,953)"/>
<path d="M0 0 C0.66 0.33 1.32 0.66 2 1 C0.02 2.65 -1.96 4.3 -4 6 C-4 5.34 -4 4.68 -4 4 C-7.96 4 -11.92 4 -16 4 C-16 3.34 -16 2.68 -16 2 C-14.64455078 2.03480469 -14.64455078 2.03480469 -13.26171875 2.0703125 C-11.49248047 2.09738281 -11.49248047 2.09738281 -9.6875 2.125 C-8.51574219 2.14820313 -7.34398437 2.17140625 -6.13671875 2.1953125 C-2.83606339 2.25320618 -2.83606339 2.25320618 0 0 Z " fill="#8FB4BC" transform="translate(287,742)"/>
<path d="M0 0 C0.495 0.309375 0.99 0.61875 1.5 0.9375 C4.97986781 2.41644382 8.24028509 2.62402851 12 3 C10.35 4.32 8.7 5.64 7 7 C3.42895561 5.12050295 1.45255699 3.82946843 0 0 Z " fill="#50838D" transform="translate(265,737)"/>
<path d="M0 0 C0.66 0.309375 1.32 0.61875 2 0.9375 C5.70476015 2.24960255 9.09263991 2.60264135 13 3 C13 3.33 13 3.66 13 4 C11.02 4.33 9.04 4.66 7 5 C7.33 5.66 7.66 6.32 8 7 C4.66272214 5.82744291 2.22562513 4.81131596 0 2 C0 1.34 0 0.68 0 0 Z " fill="#578794" transform="translate(159,413)"/>
<path d="M0 0 C12.66970387 -0.18451025 12.66970387 -0.18451025 18 1 C18 1.33 18 1.66 18 2 C5.33029613 3.51708428 5.33029613 3.51708428 0 1 C0 0.67 0 0.34 0 0 Z " fill="#A2C2CC" transform="translate(761,241)"/>
<path d="M0 0 C0.66 0 1.32 0 2 0 C2.27429625 5.39449293 2.36055646 8.51925805 -1 13 C-2.07310858 9.72814447 -1.89263102 7.57052408 -1.0625 4.25 C-0.86785156 3.45078125 -0.67320312 2.6515625 -0.47265625 1.828125 C-0.31667969 1.22484375 -0.16070312 0.6215625 0 0 Z " fill="#D1E8EC" transform="translate(381,149)"/>
<path d="M0 0 C0.33 0.66 0.66 1.32 1 2 C0.01 2.33 -0.98 2.66 -2 3 C-0.68 3.66 0.64 4.32 2 5 C0.54207116 5.05399736 -0.91642712 5.09279177 -2.375 5.125 C-3.18710937 5.14820313 -3.99921875 5.17140625 -4.8359375 5.1953125 C-7 5 -7 5 -9 3 C-5.81237635 0.87491756 -3.73487777 0.4979837 0 0 Z " fill="#42808E" transform="translate(466,126)"/>
<path d="M0 0 C4.95 1.98 4.95 1.98 10 4 C9.34 4.66 8.68 5.32 8 6 C5.12312519 5.77870194 3.46048856 5.36521506 1.1875 3.5625 C0 2 0 2 0 0 Z " fill="#36565E" transform="translate(590,909)"/>
<path d="M0 0 C3.93809611 3.76687454 3.93809611 3.76687454 4.09765625 6.9453125 C4.06510417 8.96354167 4.03255208 10.98177083 4 13 C3.67 13 3.34 13 3 13 C3 11.02 3 9.04 3 7 C2.01 7 1.02 7 0 7 C0 4.69 0 2.38 0 0 Z " fill="#558591" transform="translate(290,721)"/>
<path d="M0 0 C1.90608098 3.21182149 2.22266247 5.53882603 2.125 9.25 C2.10695312 10.14203125 2.08890625 11.0340625 2.0703125 11.953125 C2.04710937 12.62859375 2.02390625 13.3040625 2 14 C1.34 14 0.68 14 0 14 C-0.91297308 9.02936879 -0.91297308 4.97063121 0 0 Z " fill="#A3C2CB" transform="translate(205,348)"/>
<path d="M0 0 C4.72065967 1.54269924 9.41664092 3.07794619 14 5 C14 5.33 14 5.66 14 6 C9.13103697 5.40380045 4.67209049 4.43023178 0 3 C0 2.01 0 1.02 0 0 Z " fill="#93B7C3" transform="translate(620,207)"/>
<path d="M0 0 C0.99 0 1.98 0 3 0 C3 2.64 3 5.28 3 8 C2.01 8 1.02 8 0 8 C0 5.36 0 2.72 0 0 Z " fill="#8AAEB9" transform="translate(797,280)"/>
<path d="M0 0 C0.33 0 0.66 0 1 0 C1 3.3 1 6.6 1 10 C0.34 10 -0.32 10 -1 10 C-2.25 3.375 -2.25 3.375 0 0 Z " fill="#C8D0D4" transform="translate(324,811)"/>
<path d="M0 0 C0.845625 0.474375 1.69125 0.94875 2.5625 1.4375 C6.12587329 3.05721513 9.12561425 3.61256143 13 4 C13 4.33 13 4.66 13 5 C7.32723489 5.29341888 4.00932754 5.00559652 -1 2 C-0.67 1.34 -0.34 0.68 0 0 Z " fill="#D4E7E8" transform="translate(331,827)"/>
<path d="M0 0 C0.99 0.66 1.98 1.32 3 2 C0.69 4.31 -1.62 6.62 -4 9 C-4.66 8.67 -5.32 8.34 -6 8 C-4.02 5.36 -2.04 2.72 0 0 Z " fill="#407A86" transform="translate(668,746)"/>
<path d="M0 0 C0.495 0.309375 0.99 0.61875 1.5 0.9375 C4.97986781 2.41644382 8.24028509 2.62402851 12 3 C12 3.33 12 3.66 12 4 C6.75789474 5.74736842 6.75789474 5.74736842 4 6 C1.5 4.25 1.5 4.25 0 2 C0 1.34 0 0.68 0 0 Z " fill="#48656F" transform="translate(737,737)"/>
<path d="M0 0 C1.5 1.125 1.5 1.125 3 3 C3.1875 6.1875 3.1875 6.1875 3 9 C2.01 8.67 1.02 8.34 0 8 C0 5.36 0 2.72 0 0 Z " fill="#2F4E59" transform="translate(809,623)"/>
<path d="M0 0 C2.31 0.66 4.62 1.32 7 2 C7.33 3.65 7.66 5.3 8 7 C4.63718422 5.55879324 2.4480582 3.71035015 0 1 C0 0.67 0 0.34 0 0 Z " fill="#4B7E8B" transform="translate(147,303)"/>
<path d="M0 0 C0.33 0.66 0.66 1.32 1 2 C-1.64 4.31 -4.28 6.62 -7 9 C-7.33 8.34 -7.66 7.68 -8 7 C-3.375 1.125 -3.375 1.125 0 0 Z " fill="#DDE2E5" transform="translate(333,802)"/>
<path d="M0 0 C0.68359375 1.765625 0.68359375 1.765625 1 4 C-0.21484375 5.921875 -0.21484375 5.921875 -1.9375 7.75 C-2.50339844 8.36359375 -3.06929687 8.9771875 -3.65234375 9.609375 C-4.31943359 10.29773438 -4.31943359 10.29773438 -5 11 C-5.33 10.01 -5.66 9.02 -6 8 C-5.195625 7.236875 -4.39125 6.47375 -3.5625 5.6875 C-0.83200976 3.20569102 -0.83200976 3.20569102 0 0 Z " fill="#7EA0AE" transform="translate(811,637)"/>
<path d="M0 0 C0.99 0.99 1.98 1.98 3 3 C1.68 3 0.36 3 -1 3 C-1 3.66 -1 4.32 -1 5 C-2.98 5.33 -4.96 5.66 -7 6 C-4.74259377 3.66475218 -2.7194239 1.81294927 0 0 Z " fill="#B6DFE0" transform="translate(497,157)"/>
<path d="M0 0 C2.875 0.6875 2.875 0.6875 6 2 C7.375 4.625 7.375 4.625 8 7 C4.66272214 5.82744291 2.22562513 4.81131596 0 2 C0 1.34 0 0.68 0 0 Z " fill="#3D5D6C" transform="translate(552,123)"/>
<path d="M0 0 C0.33 1.32 0.66 2.64 1 4 C-0.32 4.99 -1.64 5.98 -3 7 C-3.33 5.35 -3.66 3.7 -4 2 C-2.68 1.34 -1.36 0.68 0 0 Z " fill="#314A53" transform="translate(527,944)"/>
<path d="M0 0 C1.15957207 3.47871621 0.77456651 4.34219645 -0.4375 7.6875 C-0.86869141 8.89986328 -0.86869141 8.89986328 -1.30859375 10.13671875 C-1.53675781 10.75160156 -1.76492188 11.36648438 -2 12 C-3.1171875 10.265625 -3.1171875 10.265625 -4 8 C-3.3203125 5.859375 -3.3203125 5.859375 -2.125 3.75 C-1.73570312 3.04359375 -1.34640625 2.3371875 -0.9453125 1.609375 C-0.63335938 1.07828125 -0.32140625 0.5471875 0 0 Z " fill="#A5C0D0" transform="translate(757,566)"/>
<path d="M0 0 C1.5 1.3125 1.5 1.3125 3 3 C3 3.99 3 4.98 3 6 C2.34 6 1.68 6 1 6 C0.67 6.99 0.34 7.98 0 9 C-1.15941038 5.52176885 -0.70820884 3.54104422 0 0 Z " fill="#3D5463" transform="translate(868,397)"/>
<path d="M0 0 C1.65 0.33 3.3 0.66 5 1 C3.515 3.475 3.515 3.475 2 6 C1.34 5.67 0.68 5.34 0 5 C0 3.33333333 0 1.66666667 0 0 Z " fill="#324A55" transform="translate(877,301)"/>
<path d="M0 0 C0 0.33 0 0.66 0 1 C-6.4 2.35384615 -6.4 2.35384615 -9.4375 0.5625 C-9.953125 0.046875 -10.46875 -0.46875 -11 -1 C-6.99799622 -2.60080151 -3.95443764 -1.29279692 0 0 Z " fill="#5994A3" transform="translate(769,224)"/>
<path d="M0 0 C5.94 0.99 5.94 0.99 12 2 C12 2.33 12 2.66 12 3 C10.56732696 3.27632268 9.12836665 3.52019671 7.6875 3.75 C6.88699219 3.88921875 6.08648438 4.0284375 5.26171875 4.171875 C4.51535156 4.11515625 3.76898437 4.0584375 3 4 C2.01 2.68 1.02 1.36 0 0 Z " fill="#42606A" transform="translate(852,209)"/>
<path d="M0 0 C0.33 0.66 0.66 1.32 1 2 C-3.30769231 5.93846154 -3.30769231 5.93846154 -6.8125 6.25 C-7.534375 6.1675 -8.25625 6.085 -9 6 C-6.11964908 3.75972706 -3.15133488 1.83827868 0 0 Z " fill="#AFD8E4" transform="translate(472,174)"/>
<path d="M0 0 C1.32 1.65 2.64 3.3 4 5 C3.67 5.66 3.34 6.32 3 7 C2.34 6.67 1.68 6.34 1 6 C0.67 6.99 0.34 7.98 0 9 C0 6.03 0 3.06 0 0 Z " fill="#4D6B72" transform="translate(697,811)"/>
<path d="M0 0 C0.33 0 0.66 0 1 0 C1.19878036 3.57804656 1.04108797 5.99208089 -1 9 C-1.99 9.33 -2.98 9.66 -4 10 C-2.8905928 6.51329166 -1.73662334 3.22515763 0 0 Z " fill="#407E8B" transform="translate(720,662)"/>
<path d="M0 0 C1.5625 1.25 1.5625 1.25 3 3 C2.6875 5.1875 2.6875 5.1875 2 7 C1.01 7 0.02 7 -1 7 C-0.67 4.69 -0.34 2.38 0 0 Z " fill="#4D818B" transform="translate(185,398)"/>
<path d="M0 0 C0.33 0 0.66 0 1 0 C1 2.97 1 5.94 1 9 C0.01 9.33 -0.98 9.66 -2 10 C-2.33 8.68 -2.66 7.36 -3 6 C-2.01 6 -1.02 6 0 6 C0 4.02 0 2.04 0 0 Z " fill="#357281" transform="translate(174,291)"/>
<path d="M0 0 C2.3431213 0.25561323 4.67843403 0.59270772 7 1 C7.33 1.66 7.66 2.32 8 3 C5.36 3 2.72 3 0 3 C0 2.01 0 1.02 0 0 Z " fill="#9BBBC7" transform="translate(712,128)"/>
<path d="M0 0 C1.98 0.99 1.98 0.99 4 2 C4 2.66 4 3.32 4 4 C3.34 4 2.68 4 2 4 C2 6.31 2 8.62 2 11 C1.67 11 1.34 11 1 11 C0.67 7.37 0.34 3.74 0 0 Z " fill="#9EC0C6" transform="translate(353,809)"/>
<path d="M0 0 C0 3 0 3 -2.5 5.6875 C-3.325 6.450625 -4.15 7.21375 -5 8 C-5.66 7.67 -6.32 7.34 -7 7 C-4.69 4.69 -2.38 2.38 0 0 Z " fill="#4C838E" transform="translate(621,799)"/>
<path d="M0 0 C0 3.61537605 -0.89229241 5.11165997 -3 8 C-3.99 8 -4.98 8 -6 8 C-4.02 5.36 -2.04 2.72 0 0 Z " fill="#6EA6B9" transform="translate(691,749)"/>
<path d="M0 0 C0.33 0 0.66 0 1 0 C1.1875 3.375 1.1875 3.375 1 7 C0.01 7.66 -0.98 8.32 -2 9 C-1.125 2.25 -1.125 2.25 0 0 Z " fill="#3D7D84" transform="translate(735,629)"/>
<path d="M0 0 C0.66 0 1.32 0 2 0 C4 3 4 3 3.625 5.6875 C3.41875 6.450625 3.2125 7.21375 3 8 C0.4345406 5.4345406 0.45953913 3.52313332 0 0 Z " fill="#498091" transform="translate(242,553)"/>
<path d="M0 0 C0.66 0.33 1.32 0.66 2 1 C1.67 3.31 1.34 5.62 1 8 C0.67 8 0.34 8 0 8 C0 6.35 0 4.7 0 3 C-0.66 3 -1.32 3 -2 3 C-2 2.34 -2 1.68 -2 1 C-1.34 0.67 -0.68 0.34 0 0 Z " fill="#35777E" transform="translate(186,404)"/>
<path d="M0 0 C0.99 0 1.98 0 3 0 C1.63016497 3.16115776 1.0109362 3.9927092 -2 6 C-1.125 1.125 -1.125 1.125 0 0 Z " fill="#B7DBE0" transform="translate(766,188)"/>
<path d="M0 0 C0.33 0.99 0.66 1.98 1 3 C2.32 3 3.64 3 5 3 C4.67 3.99 4.34 4.98 4 6 C1.9375 6.6875 1.9375 6.6875 0 7 C0 4.69 0 2.38 0 0 Z " fill="#8DADB5" transform="translate(513,32)"/>
</svg>
